<?xml version="1.0" standalone="no"?>
<!DOCTYPE svg PUBLIC "-//W3C//DTD SVG 1.1//EN" "http://www.w3.org/Graphics/SVG/1.1/DTD/svg11.dtd" >
<svg xmlns="http://www.w3.org/2000/svg" xmlns:xlink="http://www.w3.org/1999/xlink" version="1.1">
<metadata>
Created by FontForge 20161116 at Thu Oct 17 09:43:39 2013
 By Jimmy Warting
</metadata>
<defs>
<font id="Simple-Line-Icons" horiz-adv-x="512" >
  <font-face 
    font-family="Simple-Line-Icons"
    font-weight="400"
    font-stretch="normal"
    units-per-em="512"
    panose-1="2 0 5 3 0 0 0 0 0 0"
    ascent="480"
    descent="-32"
    bbox="-1.70312 -33.0166 513.035 481.015"
    underline-thickness="0"
    underline-position="0"
    unicode-range="U+E000-F000"
  />
<missing-glyph 
 />
    <glyph glyph-name=".notdef" 
 />
    <glyph glyph-name=".notdef" 
 />
    <glyph glyph-name="uniF000" unicode="&#xf000;" horiz-adv-x="0" 
d="M0 480l512 -512h-512v512z" />
    <glyph glyph-name="uniE000" unicode="&#xe000;" 
d="M480.016 78.6562l-139.248 66.0322c18.5762 9.31152 91.1279 12.2637 97.1279 28.6396c0 0 -28.6719 44.0078 -35.6719 101.168c-2.71973 22.1836 -7.37598 51.2959 -12 92.2959c-7.50391 66.5039 -63.4395 113.208 -134.096 113.208h-0.12793h-0.12793
c-70.6562 0 -126.592 -46.7041 -134.088 -113.2c-4.62402 -41 -9.28027 -70.1123 -12 -92.2959c-7 -57.168 -35.6719 -101.168 -35.6719 -101.168c6 -16.376 78.5439 -19.3281 97.1279 -28.6396l-139.256 -66.04s-31.9844 -11.2324 -31.9844 -37.7363v-42.2637
c-0 -17.6885 14.3115 -30.6562 31.9834 -30.6562h448.032c17.6719 0 31.9844 12.9678 31.9844 30.6562v42.2637c0 26.5039 -31.9844 37.7363 -31.9844 37.7363zM32 0l-0.00292969 40.9219c0 1.7041 6.04785 5.7998 10.9678 7.67188
c1.06445 0.375977 1.7207 0.671875 2.7207 1.16016l139.248 66.0322c11.0645 5.23242 18.1602 16.3447 18.2959 28.5771c0.12793 12.2324 -6.71973 23.4883 -17.6553 28.9688c-10.8398 5.44043 -25.168 8.12891 -47.624 12.0166
c-5.32812 0.935547 -12.6084 2.24707 -19.6729 3.65527c9.16016 20.5518 19.2803 49.2959 23.2646 81.8154c0.984375 8.0957 2.24805 17.208 3.65625 27.2959c2.42383 17.168 5.42383 38.9355 8.37598 65.1113c5.58398 49.4316 47.6396 84.7754 102.296 84.7754h0.12793
h0.12793c54.6562 0 96.7207 -35.3438 102.297 -84.7842c2.95215 -26.168 5.95215 -47.9443 8.37598 -65.1123c1.4082 -10.0879 2.67188 -19.2002 3.65625 -27.2959c3.98438 -32.5117 14.1123 -61.2559 23.2646 -81.8154
c-7.06445 -1.4082 -14.3447 -2.71973 -19.6729 -3.65527c-22.4561 -3.8877 -36.7842 -6.57617 -47.624 -12.0166c-10.9355 -5.48828 -17.7832 -16.7363 -17.6553 -28.9688c0.143555 -12.2324 7.23145 -23.3447 18.2959 -28.5771l139.248 -66.0322
c1 -0.488281 1.65625 -0.78418 2.7207 -1.16016c4.91992 -1.87207 10.248 -5.96777 10.9678 -7.67188l0.015625 -40.9121h-448.016z" />
    <glyph glyph-name="uniE002" unicode="&#xe002;" 
d="M32.0322 32.6562c0 12.7197 9.54297 16.7051 13.3594 18.4727l140.52 66.3115c10.0723 4.62402 17.0244 14.1602 18.376 25.1602c1.36035 11 -3.08008 21.9199 -11.7285 28.8555c-33.2402 26.6885 -48.7285 85.3447 -48.7285 116.593v79.9521
c0 33.4316 58.2002 79.9277 112.064 79.9277c54.3359 0 111.96 -45.7676 111.96 -79.9277v-79.96c0 -30.7764 -12.7998 -89.6562 -47.1279 -116.681c-8.75195 -6.8877 -13.2959 -17.8398 -11.9844 -28.9043c1.3125 -11.0801 8.29688 -20.6562 18.4248 -25.3125
l47.96 -22.752l7.9043 31.9355l-42.5039 19.8877c44.3281 34.8877 59.3281 103.416 59.3281 141.824v79.96c0 52.96 -73.3125 111.928 -143.961 111.928c-70.6562 0 -144.064 -58.9678 -144.064 -111.928v-79.96c0 -34.9355 15.9443 -105.623 60.6963 -141.543
l-140.52 -66.3125s-31.9756 -14.248 -31.9756 -31.9844v-48.0156c0 -17.6719 14.3203 -31.9834 31.9766 -31.9834h351.96v32l-351.936 -0.015625v32.4717zM495.967 64.0654h-48v48c0 8.83984 -7.16797 16 -16 16s-16 -7.16016 -16 -16v-48h-48
c-8.83203 0 -16 -7.16016 -16 -16c0 -8.83203 7.16797 -16 16 -16h48v-48c0 -8.83203 7.16797 -16 16 -16s16 7.16797 16 16v48h48c8.83203 0 16 7.16797 16 16c0 8.83984 -7.16016 16 -16 16z" />
    <glyph glyph-name="uniE003" unicode="&#xe003;" 
d="M31.752 0.120117l-0.000976562 32.4717c0 12.7197 9.55176 16.7119 13.3594 18.4717l140.52 66.3115c10.0723 4.62402 17.0244 14.1602 18.376 25.1602c1.36035 11 -3.08008 21.9199 -11.7285 28.8555c-33.2402 26.6885 -48.7285 85.3525 -48.7285 116.593v79.96
c0 33.4316 58.2002 79.9277 112.064 79.9277c54.3359 0 111.968 -45.7676 111.968 -79.9277v-79.96c0 -30.7764 -12.7998 -89.6562 -47.1279 -116.688c-8.75195 -6.8877 -13.2959 -17.8398 -11.9844 -28.9043c1.3125 -11.0801 8.29688 -20.6562 18.4248 -25.3125
l81.1201 -38.624l19.0723 27.0322l-86.832 40.6719c44.3281 34.8877 59.3281 103.424 59.3281 141.832v79.96c0 52.96 -73.3115 111.928 -143.968 111.928s-144.064 -58.9678 -144.064 -111.928v-79.96c0 -34.9355 15.9443 -105.623 60.6963 -141.543l-140.52 -66.3281
s-31.9756 -14.248 -31.9756 -31.9844v-48.0156c0 -17.6719 14.3203 -31.9834 31.9766 -31.9834h319.856l-26 31.9922zM506.103 118.248c-6.95215 5.45605 -17.0166 4.21582 -22.457 -2.73633l-68.4238 -104.352l-42.5283 42.5361
c-6.24805 6.24805 -16.3838 6.24805 -22.6318 0s-6.24805 -16.376 0 -22.624l56.5684 -56.5684c6.24805 -6.24805 16.376 -6.24805 22.624 0c1.51953 1.51172 2.65527 3.27148 3.43945 5.14355l76.1523 116.152c5.44043 6.95215 4.2168 17.0078 -2.74316 22.4482z" />
    <glyph glyph-name="uniE004" unicode="&#xe004;" 
d="M399.56 288.072l0.000976562 79.96c0 52.96 -73.3037 111.928 -143.952 111.928c-70.6562 0 -144.064 -58.9678 -144.064 -111.928v-79.96c0 -34.9355 15.9443 -105.615 60.6963 -141.535l-140.52 -66.3203s-31.9756 -14.248 -31.9756 -31.9844v-48.0156
c0 -17.6719 14.3203 -31.9844 31.9766 -31.9844h303.968v32l-303.944 -0.015625v32.4717c0 12.7197 9.55176 16.7119 13.3594 18.4717l140.52 66.3115c10.0723 4.62402 17.0244 14.168 18.376 25.168c1.36035 11 -3.08008 21.9121 -11.7285 28.8477
c-33.2402 26.6885 -48.7285 85.3447 -48.7285 116.601v79.96c0 33.4316 58.2002 79.9277 112.064 79.9277c54.3438 0 111.952 -45.7676 111.952 -79.9277v-79.96c0 -30.7764 -12.7998 -89.6641 -47.1123 -116.68c-8.76758 -6.87988 -13.3115 -17.832 -11.9834 -28.8965
c1.2959 -11.0801 8.28027 -20.6562 18.4238 -25.3125l9.05566 -4.17578l14.0322 25.8965l-9.74414 7.36035c44.3281 34.8643 59.3281 103.384 59.3281 141.792zM462.312 40.6006l45.248 45.2559c6.24805 6.23242 6.24805 16.376 0 22.624
c-6.24023 6.24023 -16.376 6.24023 -22.6162 0l-45.2559 -45.2637l-45.248 45.2637c-6.24805 6.24023 -16.3838 6.24023 -22.624 0c-6.24805 -6.24805 -6.24805 -16.3916 0 -22.624l45.248 -45.2559l-45.248 -45.248c-6.24805 -6.24023 -6.24805 -16.3838 0 -22.6318
c6.24023 -6.23242 16.376 -6.23242 22.624 0l45.248 45.2559l45.2559 -45.2559c6.24023 -6.23242 16.376 -6.23242 22.6162 0c6.24805 6.24805 6.24805 16.3916 0 22.6318z" />
    <glyph glyph-name="uniE006" unicode="&#xe006;" 
d="M367.904 16.0645h-224.968c-8.83984 0 -16 -7.16016 -16 -16s7.16016 -16 16 -16h224.968c8.83984 0 16 7.16016 16 16s-7.15234 16 -16 16zM508.656 419.185c-1.51172 7.44043 -8.08398 12.7871 -15.6758 12.7871h-78.3125v15.9678c0 8.83984 -7.16016 16 -16 16
h-287.768c-8.83984 0 -16 -7.16016 -16 -16v-15.9678h-75.8877c-7.5918 0 -14.1602 -5.34375 -15.6719 -12.7842c-0.47168 -2.31152 -11.1992 -58.376 19.9531 -96.5762c17.9199 -21.96 45.3037 -33.4639 81.248 -34.4883
c20.4961 -60.5762 72.0322 -105.433 134.097 -112.121v-111.456h-47.8877c-8.83984 0 -16 -7.16016 -16 -16s7.16016 -16 16 -16h129.344c8.83984 0 16 7.16016 16 16s-7.16016 16 -16 16h-49.4561v111.44c62.168 6.55957 113.816 51.3994 134.368 112.039
c37.168 0.543945 65.3682 12.1201 83.6963 34.584c31.1523 38.208 20.4248 94.2637 19.9531 96.5752zM48.1963 342.724c-14.168 17.248 -15.5918 42.7031 -14.8721 57.2471h61.5762v-54.0156c0 -8.64844 0.799805 -17.0801 1.96777 -25.3838
c-21.8398 2.04004 -38.2236 9.41602 -48.6719 22.1523zM382.668 345.955c0 -76.5439 -57.3594 -138.832 -127.855 -138.832c-70.5283 0 -127.904 62.2803 -127.904 138.832v85.9844h255.768v-85.9844h-0.0078125zM463.797 342.723
c-10.8398 -13.2158 -28.0166 -20.7432 -51.1367 -22.4316c1.19238 8.3916 2.00879 16.9199 2.00879 25.6641v54.0156h64c0.719727 -14.5596 -0.704102 -40 -14.8721 -57.248z" />
    <glyph glyph-name="uniE010" unicode="&#xe010;" 
d="M352.072 480h-192.144c-26.5117 0 -48 -21.4883 -48 -48v-416c0 -26.5117 21.4883 -48 48 -48h192.144c26.5117 0 48 21.4883 48 48v416c0 26.5117 -21.4883 48 -48 48zM368.072 16c0 -8.83203 -7.16797 -16 -16 -16h-192.144c-8.83203 -0 -16 7.16797 -16 16v416
c0 8.83203 7.16797 16 16 16h192.144c8.83203 0 16 -7.16797 16 -16v-416zM256.024 79.9121c-17.6396 0 -31.9199 -14.2959 -31.9199 -31.9121s14.2881 -31.9199 31.9199 -31.9199c17.6396 0 31.9199 14.3037 31.9199 31.9199s-14.2803 31.9121 -31.9199 31.9121z
M288.024 432h-64c-8.83203 0 -16 -7.16797 -16 -16s7.16797 -16 16 -16h64c8.83203 0 16 7.16797 16 16s-7.16797 16 -16 16z" />
    <glyph glyph-name="uniE011" unicode="&#xe011;" 
d="M480 432.096h-448c-17.5918 0 -32 -14.4004 -32 -32v-272.096c0 -17.5918 14.4082 -31.9922 32 -31.9922h208v-48.1035h-80c-8.83203 0 -16 -7.16797 -16 -16s7.16797 -16 16 -16h192c8.83203 0 16 7.16797 16 16s-7.16797 16 -16 16h-80v48.1035h208
c17.5918 0 32 14.4004 32 31.9922v272.096c0 17.5996 -14.4082 32 -32 32zM480 128h-448v272.096h448v-272.096z" />
    <glyph glyph-name="uniE012" unicode="&#xe012;" 
d="M467.16 447.048c5.21582 0 8.88281 -0.96875 10.7949 -1.70508c2.2959 -6.1123 5.37598 -28.0166 -17.2637 -50.6729l-105.336 -105.328l-10.1602 -10.1602l0.832031 -14.3281c1.75195 -29.9844 5 -83.7207 7.7998 -129.785
c2.47168 -41 4.81543 -79.7197 4.96777 -83.0156c0.0800781 -2.26367 0.112305 -2.7998 -2 -5.34375c-4.71973 -5.73633 -13.5273 -15.4561 -20.9512 -23.5117c-11.5117 31.0156 -35.7041 96.5273 -49.0645 133.199l-17.168 47.1836l-35.5117 -35.5117l-65.3037 -62.792
l-9.0957 -9.08008l-0.280273 -12.8398c-0.21582 -10.248 -0.167969 -28.6396 -0.143555 -44.8555c0.0322266 -11.2959 0.0644531 -21.5596 -0.015625 -27.2158c-0.143555 -0.263672 2.18457 -0.575195 1.96875 -0.951172c-1.3916 2.23242 -2.8877 4.64062 -4.47168 7.14453
c-13.168 21 -31.3916 50.0479 -36.9512 59.1123l-4.06445 6.63965l-6.67188 4.03223c-24.2637 14.6562 -51.1436 31.5762 -67.5439 42.1445c0.568359 0.328125 1.03223 -1.4082 1.4082 -1.20801h1.06445c5.16016 0 13.6885 -0.112305 23.248 -0.248047
c12.5039 -0.167969 26.6875 -0.375977 37.5439 -0.375977c4.16016 0 7.85645 0.0322266 10.832 0.0966797l12.8398 0.295898l9.08008 9.08008l62.8721 64.8564l35.3916 35.376l-46.9678 17.2803c-35.2959 12.9844 -102.904 38.2324 -134.528 50.1123
c8.1123 7.47168 17.8887 16.3438 23.5928 21.0635c1.5918 1.31152 2.83203 1.9834 3.68848 1.9834l1.12793 -0.0322266c3.52832 -0.167969 47.3447 -3.03223 89.7051 -5.7998c44.9678 -2.93555 95.7197 -6.24707 124.576 -8.0791l14.4238 -0.904297l10.2158 10.2158
l105.296 105.304c16.2236 16.2002 32.1592 18.624 40.2236 18.624zM467.155 479.047c-18.9043 0 -42.1152 -7.26367 -62.8428 -28l-105.304 -105.296c-59.3115 3.75195 -211.216 13.7998 -214.983 13.9033c-0.671875 0.0322266 -1.50391 0.0644531 -2.43945 0.0644531
c-5.12793 0 -13.9844 -0.984375 -24.0645 -9.3125c-11.832 -9.78418 -36.5039 -32.9844 -36.5039 -32.9844c-5.95215 -5.96777 -8.96777 -13.3594 -8.24805 -20.3115c0.44043 -4.2002 2.7207 -11.8564 13.0322 -15.8887c6.26367 -2.45605 105.952 -39.752 151.984 -56.6875
l-62.8721 -64.8564c-2.78418 -0.0644531 -6.23242 -0.0966797 -10.1279 -0.0966797c-19.168 0 -48.8877 0.624023 -60.7998 0.624023c-1.57617 0 -2.83984 0 -3.73633 -0.0322266c-3.62402 -0.112305 -11.1279 1.67188 -30.9199 -14.8721l-1.4082 -1.31152
c-5.93555 -5.93555 -7.32715 -11.8555 -7.45508 -15.7676c-0.12793 -4.03223 0.952148 -9.83984 6.78418 -14.5117c3.50391 -2.83203 48.4238 -31.5918 85.2637 -53.8398c8.83203 -14.4082 49.4717 -79 51.5918 -82.5039c3.0957 -5.23242 8.16016 -8.2168 14.2158 -8.40918
h0.503906c5.8877 0 11.9355 2.91992 17.8555 8.67188c16.752 19.5918 14.4404 27.7041 14.5127 31.1123c0.263672 10.6885 -0.18457 55.9688 0.199219 73.9209l65.2959 62.7998c16.6875 -45.8398 53.168 -144.504 55.6084 -150.784
c4.06445 -10.3115 11.7207 -12.5752 15.9209 -12.999c0.688477 -0.0800781 1.39258 -0.112305 2.08008 -0.112305c6.31152 0 12.8555 2.96777 18.2158 8.32812c0 0 23.1279 24.5439 32.9521 36.4883c9.83984 11.9355 9.45605 22.1279 9.26367 26.9355
c-0.0800781 3.32812 -9.34375 154.408 -12.7842 213.408l105.328 105.328c37.3281 37.3438 31.3926 82.3438 17.5283 96.1836c-6.12012 6.15234 -18.5117 10.8086 -33.6475 10.8086v0z" />
    <glyph glyph-name="uniE013" unicode="&#xe013;" 
d="M424.576 480l-319 -0.000976562c-23 0 -33.0156 -17 -33.0156 -33v-63.6562h-17.4639c-8.65625 0 -15.6719 -7.01562 -15.6719 -15.6719s7.01562 -15.6719 15.6719 -15.6719h17.4639v-64.376h-15.9678c-8.65625 0 -15.6719 -7.01562 -15.6719 -15.6719
s7.01562 -15.6719 15.6719 -15.6719h15.9678v-64.7197h-16.3115c-8.65625 0 -15.6719 -7.01562 -15.6719 -15.6719s7.01562 -15.6719 15.6719 -15.6719h16.3115v-64.2324h-16.3115c-8.65625 0 -15.6719 -7.01562 -15.6719 -15.6719s7.01562 -15.6719 15.6719 -15.6719
h16.3115v-64.6396c0 -26.5117 20.7676 -32 32.2637 -32h319.752c26.5117 0 48 21.4883 48 48v416c0 26.5117 -21.4805 48 -48 48zM104.561 -0.000976562v64.6416h16.6719c8.65625 0 15.6719 7.01562 15.6719 15.6719s-7.01562 15.6719 -15.6719 15.6719h-16.6719v64.2324
h16.6719c8.65625 0 15.6719 7.01562 15.6719 15.6719s-7.01562 15.6719 -15.6719 15.6719h-16.6719v64.7197h17.0156c8.65625 0 15.6719 7.01562 15.6719 15.6719s-7.01562 15.6719 -15.6719 15.6719h-17.0156v64.376h15.5117c8.65625 0 15.6719 7.01562 15.6719 15.6719
s-7.01562 15.6719 -15.6719 15.6719h-15.5117v63.6562c0 0.375977 0.0322266 0.6875 0.0800781 0.967773c0.248047 0.015625 0.55957 0.03125 0.935547 0.03125h255v-448h-256.016zM440.576 16.001c0 -8.83203 -7.16797 -16 -16 -16h-32v448h32
c8.83203 0 16 -7.16797 16 -16v-416z" />
    <glyph glyph-name="uniE014" unicode="&#xe014;" 
d="M396.424 111.64c-50.6719 0 -79.4258 23.8174 -98.4658 39.5771c-6.73633 5.57617 -12.8643 10.9521 -18.4404 15.832c-8.45605 7.42383 -19 16.6719 -22.6719 17.9521c-0.112305 0 -1.85645 0.0800781 -1.96875 0.0957031
c-0.583984 -0.0478516 -2.07227 -0.34375 -2.22461 -0.359375c-2.53613 -1.03223 -11.5439 -8.78418 -18.7842 -15c-6.56836 -5.63965 -14.0566 -12.0801 -22.5205 -18.6885l-1.54395 -1.18359c-21.7363 -16.9678 -48.792 -38.0801 -96.5762 -38.0801
c-35.4961 0 -70.4639 16.0645 -91.2881 41.9365c-13.96 17.3438 -28.6484 47.5117 -19.3369 92.7354c1.12793 5.47168 5.00781 9.95215 10.2158 11.8164c5.24023 1.8877 11.0078 0.855469 15.3037 -2.68848c0.311523 -0.232422 11.2871 -8.67285 29.5273 -8.67285
c9.18359 0 18.752 2.16797 28.416 6.47168c16.5684 7.37598 28.3682 28.0635 40.8564 42.0312c17.0879 19.0801 36.4238 40.7041 68.3438 40.9521c22.0244 0 41.8965 -8.14355 59.624 -24.2471c17.6562 16.0322 37.3838 24.1279 58.8398 24.1279
c32.5518 -0.248047 52.2959 -21.8877 69.7197 -41c12.7197 -13.9355 24.7354 -34.6074 41.3037 -41.9834c9.66406 -4.2959 19.3359 -6.47168 28.7441 -6.47168c18.9355 0 30.752 8.65625 31.2236 9.03223c4.38379 3.24805 10.1602 4.0957 15.2402 2.11133
c5.07227 -2 8.83984 -6.44043 9.85547 -11.832c8.54395 -44.7197 -6.48047 -74.7041 -20.5928 -91.9844c-21.3838 -26.2002 -56.9521 -42.4805 -92.7998 -42.4805zM255.374 217.064c0.496094 0 1.83984 -0.0498047 2.31152 -0.0976562
c0.015625 0 2.34375 -0.167969 2.34375 -0.183594c0.167969 -0.015625 1.50391 -0.183594 1.64746 -0.21582c11.5762 -1.63965 22.3125 -11.0635 38.6084 -25.3438c5.35156 -4.7041 11.248 -9.87207 17.7363 -15.248c17.3916 -14.4082 39.0479 -32.3281 78.4082 -32.3281
c26.6562 0 52.8721 11.8164 68.3916 30.8408c10.2002 12.4883 15.5039 27.3604 15.8398 44.3926c-7.51172 -2.34375 -16.6396 -4.0957 -27.1592 -4.0957c-13.832 0 -27.7842 3.0957 -41.4883 9.18359c-22.624 10.0479 -38.1523 34.5596 -51.8398 49.5752
c-17.2637 18.9355 -28.7354 30.5439 -46.0391 30.6875c-23.0801 0 -37.9766 -14.5283 -47.209 -25.4561c-3.01562 -3.55957 -7.40723 -5.60742 -12.0469 -5.60742v0c-4.63965 0 -9.04004 2.06445 -12.04 5.62402c-9.26367 10.9678 -24.208 25.5596 -46.9199 25.5596
c-17.5439 -0.12793 -28.7041 -11.6396 -45.4961 -30.4238c-13.5283 -15.1123 -28.8486 -39.7363 -51.6162 -49.8408c-13.6963 -6.0957 -27.5527 -9.18359 -41.1523 -9.18359c-10.2002 0 -19.0322 1.7041 -26.3125 4.0166
c-0.015625 -17.3604 5.05664 -32.4561 15.1689 -45.0156c14.9678 -18.5762 40.5195 -30.1279 66.7197 -30.1279c37 0 57.4482 15.9678 77.2324 31.4082l1.54395 1.20801c8.02441 6.26367 15.1201 12.376 21.3438 17.7197c14.2559 12.248 23.6641 20.3438 33.8242 22.1436v0
c0.0078125 -0.0078125 4.84766 0.808594 8.19922 0.808594z" />
    <glyph glyph-name="uniE015" unicode="&#xe015;" 
d="M256.792 480c-79.0645 0 -144.753 -64.1113 -144.753 -143.167v-225.656c0 -79.0645 65.6885 -143.177 144.753 -143.177s143.177 64.1123 143.177 143.168v225.664c0 79.0557 -64.1123 143.168 -143.177 143.168zM367.968 111.169
c0 -61.2959 -49.8721 -111.168 -111.176 -111.168s-112.752 49.8721 -112.752 111.168v225.664c0 61.2959 51.4561 111.168 112.752 111.168s111.176 -49.8721 111.176 -111.168v-225.664zM256.168 384.001c-8.83203 0 -16 -7.16797 -16 -16v-80
c0 -8.83203 7.16797 -16 16 -16s16 7.16797 16 16v80c0 8.83203 -7.16797 16 -16 16z" />
    <glyph glyph-name="uniE016" unicode="&#xe016;" 
d="M480.144 449.912l0.000976562 14.5059c0 8.83984 -7.16016 16 -16 16h-112.312c-8.83984 0 -16 -7.16016 -16 -16v-65.3281c0 -0.0244141 0.015625 -0.0488281 0.015625 -0.0732422v-198.76c0 -48.1602 -27.168 -87.3281 -75.3281 -87.3281
s-84.3281 39.168 -84.3281 87.3281v249.656h-0.0478516v14.5039c0 8.83984 -7.16016 16 -16 16h-112.312c-8.83984 0 -16 -7.16016 -16 -16v-65.3281c0 -0.328125 0.167969 -0.600586 0.183594 -0.920898v-205.248c0 -124.456 99.3916 -225.328 223.832 -225.328
s224.328 100.872 224.328 225.328v256.992h-0.0322266zM448.145 448.418v-64.168h-80.1279v64.168h80.1279zM144.145 448.418v-64.168h-80.1279v64.168h80.1279zM255.841 -0.414062c-106.608 0 -191.832 86.7363 -191.832 193.328v159.336h80.168v-151.992
c0 -65.9043 50.4238 -119.328 116.328 -119.328s107.336 53.4238 107.336 119.328v151.992h80.3281v-159.336c0 -106.592 -85.7119 -193.328 -192.328 -193.328z" />
    <glyph glyph-name="uniE020" unicode="&#xe020;" 
d="M297.672 447.64h0.0878906h-0.0878906zM297.672 447.64l-36.1035 -189.688l130.792 -0.44043l-178.032 -257.152l36.1035 208.688l-130.784 0.456055zM297.696 479.641c-0.864258 0 -1.72852 -0.0341797 -2.57617 -0.0986328
c-5.64844 -0.456055 -9.39258 -2.34375 -13.833 -5.32812c-2.46387 -1.63965 -4.71973 -3.63965 -6.69531 -5.96777c-0.583984 -0.6875 -1.13574 -1.40723 -1.64746 -2.14355l-179.304 -237.304c-7.08008 -9.7041 -8.12012 -22.5117 -2.67969 -33.2158
c5.43164 -10.7041 16.416 -17.4883 28.4561 -17.5762l92.3682 -0.671875l-29.04 -171.096c-2.75977 -14.7041 5.08008 -29.3604 18.8799 -35.2646c4.1123 -1.76758 8.43262 -2.60742 12.6963 -2.60742c10.0557 0 18.3193 4.7041 24.5195 13.2002l179.528 257.152
c7.08008 9.7041 8.1123 22.5283 2.68066 33.2168c-5.43164 10.7041 -16.416 17.4883 -28.4561 17.5762l-92.3682 0.160156l28.7275 150.44c0.599609 2.42383 0.911133 4.93555 0.911133 7.52734c0 17.3125 -13.7842 31.4248 -31.0322 31.9844
c-0.383789 0.015625 -0.759766 0.015625 -1.13574 0.015625v0z" />
    <glyph glyph-name="uniE021" unicode="&#xe021;" 
d="M390.632 176.424c-8.12793 3.63965 -17.542 -0.03125 -21.126 -8.0957c-0.328125 -0.711914 -33.0645 -72.1035 -114.721 -73.0635c-0.503906 0 -1 -0.015625 -1.50391 -0.015625c-76.832 0 -109.968 70.1836 -111.344 73.1992
c-3.65625 8 -13.0967 11.5596 -21.1611 7.93555c-8.04785 -3.63965 -11.624 -13.1035 -7.98438 -21.168c1.7041 -3.78418 42.6885 -91.9678 140.425 -91.9678c0.639648 0 1.2959 0.015625 1.93555 0.015625c101.936 1.2002 141.92 88.3281 143.56 92.0322
c3.62402 8.08008 -0.015625 17.5361 -8.08008 21.1279zM256.002 480.001c-141.392 0 -256 -114.608 -256 -256s114.608 -256 256 -256s256 114.608 256 256s-114.608 256 -256 256zM256.002 0.000976562c-123.512 0 -224 100.488 -224 224s100.488 224 224 224
s224 -100.488 224 -224s-100.488 -224 -224 -224zM175.754 240.089c17.6318 0 31.9199 14.2959 31.9199 31.9121s-14.2881 31.9121 -31.9199 31.9121c-17.6396 0 -31.9199 -14.2959 -31.9199 -31.9121s14.2803 -31.9121 31.9199 -31.9121zM335.754 240.089
c17.6318 0 31.9199 14.2959 31.9199 31.9121s-14.2881 31.9121 -31.9199 31.9121c-17.6396 0 -31.9199 -14.2959 -31.9199 -31.9121s14.2803 -31.9121 31.9199 -31.9121z" />
    <glyph glyph-name="uniE022" unicode="&#xe022;" 
d="M256 480c-141.392 0 -256 -114.608 -256 -256s114.608 -256 256 -256s256 114.608 256 256s-114.608 256 -256 256zM480 224c0 -33.1602 -7.2959 -64.6318 -20.2803 -92.9678l-141.608 75.7764c1.51172 5.48828 2.3916 11.2324 2.3916 17.1924
c0 35.624 -28.8721 64.5039 -64.5039 64.5039c-7.31152 0 -14.3115 -1.27246 -20.8555 -3.5127l-84.8076 136.456c31.4961 16.9199 67.4717 26.5518 105.664 26.5518c123.512 0 224 -100.488 224 -224zM256 256.496c17.9199 0 32.5039 -14.5762 32.5039 -32.5039
s-14.584 -32.4961 -32.5039 -32.4961s-32.4961 14.584 -32.4961 32.5039s14.5762 32.4961 32.4961 32.4961zM123.288 404.312l85.0879 -136.92c-0.375977 -0.416016 -0.767578 -0.824219 -1.14355 -1.25586l-141.584 75.7598
c15.1035 24.2881 34.6953 45.4883 57.6396 62.416zM32 224.001c0 31.8398 6.7207 62.1279 18.7529 89.584l142.184 -76.0801c-0.927734 -4.36035 -1.43945 -8.86426 -1.43945 -13.5039c0 -35.624 28.8721 -64.5039 64.5039 -64.5039
c6.2002 0 12.1758 0.919922 17.8477 2.55176l85.0957 -136.896c-30.8398 -16.0244 -65.832 -25.1523 -102.944 -25.1523c-123.512 0 -224 100.488 -224 224zM386.225 41.9209l-84.752 136.345c0.248047 0.248047 0.480469 0.511719 0.728516 0.767578l142.144 -76.0723
c-15.376 -23.8164 -35.1201 -44.5439 -58.1201 -61.04z" />
    <glyph glyph-name="uniE023" unicode="&#xe023;" 
d="M508.2 231.68l-4.24121 4.04199c-0.0800781 0.0800781 -0.167969 0.112305 -0.263672 0.18457l-64.8721 59.2158c-4.67188 4.47168 -12.2236 4.47168 -16.9121 0l-2.74414 -4.03223c-4.67188 -4.47168 -3.15234 -11.7041 1.51953 -16.168l38.2324 -34.6719h-185.672
v186.672l34.6719 -38.2324c4.47168 -4.67188 11.7041 -6.19141 16.168 -1.51172l4.03223 2.73633c4.47168 4.68848 4.47168 12.2402 0 16.9199l-56.584 61.9844c-1.37598 2.77637 -3.50391 5.07227 -6.16016 6.64844l-0.711914 0.744141
c-2.21582 2.33594 -5.16797 3.50391 -8.1123 3.48828c-2.95215 0.015625 -5.8877 -1.15234 -8.14355 -3.48828l-4.04785 -4.23242c-0.0800781 -0.0800781 -0.0878906 -0.183594 -0.167969 -0.271484l-57.752 -63.8721c-4.46387 -4.66406 -4.46387 -12.2236 0 -16.9121
l4.03223 -2.73633c4.46387 -4.67188 11.7119 -3.16016 16.1836 1.51172l34.5762 38.5518v-187.992h-188.152l38.2324 34.6719c4.67188 4.47168 6.19141 11.7041 1.51953 16.168l-2.73633 4.03223c-4.67969 4.47168 -12.248 4.47168 -16.9199 0l-61.9922 -56.5918
c-2.76758 -1.36816 -5.06348 -3.50391 -6.63965 -6.14355l-0.744141 -0.711914c-2.34375 -2.22363 -3.50391 -5.17578 -3.48828 -8.12012c-0.0078125 -2.95215 1.14453 -5.8877 3.48828 -8.14355l4.23242 -4.04785
c0.0800781 -0.0800781 0.183594 -0.0878906 0.263672 -0.167969l63.8721 -57.752c4.67188 -4.46387 12.2314 -4.46387 16.9199 0l2.73633 4.03223c4.67188 4.47168 3.15234 11.7197 -1.51953 16.1836l-38.5596 34.5762h189.504v-188.48l-34.5762 38.5518
c-4.47168 4.67188 -11.7197 6.18359 -16.1836 1.51172l-4.03223 -2.73633c-4.46387 -4.68848 -4.46387 -12.248 0 -16.9121l57.752 -63.8721c0.0800781 -0.0878906 0.0957031 -0.183594 0.167969 -0.263672l4.04785 -4.24023
c2.25586 -2.33594 5.19141 -3.50391 8.14355 -3.48828c2.93555 -0.015625 5.8877 1.15234 8.11133 3.48828l4.04785 4.24023c0.0800781 0.0800781 0.112305 0.167969 0.18457 0.263672l59.2158 64.8721c4.47168 4.67188 4.47168 12.2314 0 16.9111l-4.03223 2.74414
c-4.47168 4.67188 -11.7041 3.15234 -16.168 -1.51953l-34.6719 -38.2324v187.168h186.984l-38.5518 -34.5762c-4.67188 -4.47168 -6.18359 -11.7197 -1.51172 -16.1836l2.73633 -4.03223c4.68848 -4.46387 12.248 -4.46387 16.9121 0l63.8721 57.752
c0.0878906 0.0878906 0.183594 0.0957031 0.263672 0.167969l4.24023 4.04785c2.33594 2.24805 3.50391 5.18359 3.48828 8.14355c0.015625 2.92773 -1.15234 5.8877 -3.48828 8.11133z" />
    <glyph glyph-name="uniE024" unicode="&#xe024;" 
d="M496 80h-64.002v296.952l59.7275 59.6484c6.24023 6.24805 6.24023 16.3838 0 22.6318c-6.24805 6.24805 -16.3838 6.24805 -22.6318 0l-59.3037 -59.2324h-297.792v64c0 8.83984 -7.16016 16 -16 16s-16 -7.16016 -16 -16v-64h-64c-8.83984 0 -16 -7.16016 -16 -16
c0 -8.83203 7.16016 -16 16 -16h64v-304c0 -1.47168 0.47168 -2.7998 0.839844 -4.14355c0.160156 -0.608398 0.12793 -1.23242 0.360352 -1.81641c1.6084 -4.03223 4.80078 -7.21582 8.83301 -8.83984c0.688477 -0.280273 1.44043 -0.248047 2.14453 -0.423828
c1.26367 -0.320312 2.46387 -0.776367 3.82422 -0.776367h304v-64c0 -8.83984 7.16016 -16 16 -16s16 7.16016 16 16v64h64c8.83984 0 16 7.16016 16 16s-7.16016 16 -16 16zM377.742 368l-265.744 -265.392v265.392h265.744zM134.638 80l265.36 264.992v-264.992h-265.36z
" />
    <glyph glyph-name="uniE025" unicode="&#xe025;" 
d="M464.072 392h-416.144c-26.5117 0 -48 -21.4883 -48 -48v-240c0 -26.5117 21.4883 -48 48 -48h416.144c26.5117 0 48 21.4883 48 48v240c0 26.5117 -21.4883 48 -48 48zM47.9287 360h416.144c8.83203 0 16 -7.16797 16 -16v-32h-448.144v32c0 8.83203 7.17578 16 16 16z
M464.072 88h-416.144c-8.83203 0 -16 7.16797 -16 16v144h448.144v-144c0 -8.83203 -7.17578 -16 -16 -16z" />
    <glyph glyph-name="uniE026" unicode="&#xe026;" 
d="M405.208 -5.36035l-85.1973 100.832v176.752h10.6562c8.83984 0 16 7.16016 16 16s-7.16016 16 -16 16h-26.6562c-8.83984 0 -16 -7.16016 -16 -16v-198.912c0 -3.96777 1.47168 -7.78418 4.12793 -10.7197l65.1836 -78.6719h-202.64l65.1836 78.6719
c2.65625 2.93555 4.12793 6.75195 4.12793 10.7197v198.912c0 8.83984 -7.16016 16 -16 16h-26.6562c-8.83984 0 -16 -7.16016 -16 -16s7.16016 -16 16 -16h10.6562v-176.752l-85.2002 -100.832c-4.23242 -4.68848 -5.3125 -11.4404 -2.75293 -17.2168
c2.57617 -5.78418 8.2959 -9.50391 14.624 -9.50391h274.672c6.32812 0 12.0479 3.71973 14.624 9.50391c2.55957 5.77637 1.4873 12.5283 -2.75293 17.2168zM240.003 320.16c17.6318 0 31.9199 14.2959 31.9199 31.9199c0 17.6084 -14.2881 31.9043 -31.9199 31.9043
c-17.6396 0 -31.9199 -14.2959 -31.9199 -31.9043c0 -17.624 14.2803 -31.9199 31.9199 -31.9199zM344.243 367.656c31.1836 0 56.4648 25.168 56.4648 56.208s-25.2725 56.208 -56.4648 56.208c-31.1758 0 -56.4639 -25.168 -56.4639 -56.208
s25.2881 -56.208 56.4639 -56.208zM343.996 448.168c13.3281 0 24.168 -10.792 24.168 -24.0645c0 -13.2637 -10.8398 -24.0635 -24.168 -24.0635s-24.168 10.7998 -24.168 24.0635c0.0078125 13.2725 10.8398 24.0645 24.168 24.0645z" />
    <glyph glyph-name="uniE005" unicode="&#xe005;" 
d="M255.864 448c54.3359 0 111.961 -45.7646 111.961 -79.9248v-79.96c0 -30.7764 -12.7998 -89.6562 -47.1279 -116.688c-8.75195 -6.8877 -13.2959 -17.8398 -11.9844 -28.9043c1.3125 -11.0801 8.29688 -20.6562 18.4248 -25.3125l139.248 -66.0322
c1.08789 -0.496094 13.3438 -2.55176 13.3438 -19.6719l0.015625 -31.2324l-447.744 -0.0244141v32.4717c0 12.7197 9.54395 16.7119 13.3604 18.4717l140.512 66.3115c10.0801 4.62402 17.0322 14.1602 18.3838 25.1602c1.36035 11 -3.08008 21.9199 -11.7285 28.8555
c-33.2402 26.6885 -48.7285 85.3525 -48.7285 116.593v79.96c0.0078125 33.4238 58.208 79.9277 112.064 79.9277zM255.865 480.003c-70.6562 0 -144.065 -58.9678 -144.065 -111.928v-79.96c0 -34.9355 15.9443 -105.623 60.6963 -141.543l-140.52 -66.3203
s-31.9756 -14.248 -31.9756 -31.9844v-48.0156c0 -17.6719 14.3203 -31.9834 31.9766 -31.9834h447.776c17.6719 0 31.9844 14.3115 31.9844 31.9834v48.0156c0 18.7998 -31.9844 31.9834 -31.9844 31.9834l-139.248 66.0322
c44.3281 34.8877 59.3281 103.424 59.3281 141.832v79.96c0 52.96 -73.3203 111.928 -143.969 111.928v0z" />
    <glyph glyph-name="uniE007" unicode="&#xe007;" 
d="M255.992 461.936c-140.984 0 -255.668 -114.703 -255.668 -255.688c0 -88.5762 44.8398 -169.592 119.952 -216.704c7.47168 -4.73633 17.3438 -2.44043 22.0479 5.04785s2.44043 17.3604 -5.04785 22.0488c-27.0479 16.9756 -49.5195 39.0234 -66.7119 64.4395
l16.7764 9.68848c7.65625 4.42383 10.2803 14.2002 5.85645 21.8564c-4.44043 7.67188 -14.2324 10.2803 -21.8564 5.85645l-16.7998 -9.69629c-12.2002 25.2559 -19.6484 52.8955 -21.6406 81.7119h17.8076c8.83984 0 16 7.16016 16 16s-7.16016 16 -16 16h-17.7275
c2.12012 29.3438 9.8877 57.1514 22.2793 82.2949l16.0801 -9.28027c2.51172 -1.45605 5.26367 -2.14453 7.9834 -2.14453c5.52832 0 10.9043 2.87207 13.8721 8c4.42383 7.65625 1.7998 17.4404 -5.85645 21.8564l-15.9199 9.18359
c16.0557 23.416 36.4316 43.6484 59.9912 59.5127l9.00781 -15.5996c2.96777 -5.14355 8.34375 -8 13.8721 -8c2.71973 0 5.47168 0.688477 7.9834 2.14453c7.65625 4.42383 10.2803 14.2002 5.85645 21.8564l-8.97559 15.5361
c24.6641 11.8955 51.8398 19.3271 80.4883 21.4072v-19.9355c0 -8.83984 7.16016 -16 16 -16s16 7.16016 16 16v20c29.2959 -2.04004 57.0635 -9.69629 82.1914 -21.9766l-8.67969 -15.0244c-4.42383 -7.65625 -1.7998 -17.4404 5.85645 -21.8564
c2.51172 -1.45605 5.26367 -2.14453 7.9834 -2.14453c5.52832 0 10.9043 2.85645 13.8721 8l8.63965 14.9678c23.3438 -15.8877 43.5361 -36.0713 59.4404 -59.4072l-14.9844 -8.65625c-7.65625 -4.42383 -10.2803 -14.2002 -5.85645 -21.8564
c2.96777 -5.14355 8.34375 -8 13.8721 -8c2.71973 0 5.47168 0.688477 7.9834 2.14453l15.0645 8.69629c12.2959 -25.1357 19.9756 -52.9121 22.0234 -82.2158h-17.5684c-8.83984 0 -16 -7.16016 -16 -16s7.16016 -16 16 -16h17.5596
c-2.02441 -28.4404 -9.29688 -55.7207 -21.249 -80.6562l-15.8398 9.14355c-7.63965 4.42383 -17.4561 1.78418 -21.8564 -5.85547c-4.42383 -7.65625 -1.7998 -17.4404 5.85645 -21.8564l15.8877 -9.17578c-17.5518 -26.1201 -40.7197 -48.6963 -68.6797 -65.9121
c-7.52832 -4.63965 -9.85645 -14.5039 -5.23242 -22.0156c3.03223 -4.9043 8.26465 -7.6084 13.6406 -7.6084c2.85645 0 5.76855 0.767578 8.37695 2.37598c76.2324 46.9521 121.736 128.393 121.736 217.816c0 140.976 -114.704 255.68 -255.688 255.68zM374.061 256.137
c7.64844 4.42383 10.2725 14.1982 5.85645 21.8545c-4.41602 7.64844 -14.208 10.2725 -21.8564 5.84863l-86.9121 -50.1758c-4.63965 2.62402 -9.92773 4.24805 -15.6396 4.24805c-17.6396 0 -31.9199 -14.2959 -31.9199 -31.9043
c0 -17.624 14.2881 -31.9199 31.9199 -31.9199c17.6396 0 31.9199 14.2959 31.9199 31.9199c0 0.0322266 -0.0078125 0.0722656 -0.0078125 0.104492z" />
    <glyph glyph-name="uniE008" unicode="&#xe008;" 
d="M470.368 385.152c-13.8721 9.98438 -52.5312 23.249 -214.507 23.249c-173.576 0 -199.328 -15.2324 -207.592 -20.2168c-43.9844 -26.4238 -48.1602 -143.408 -48.5439 -167.128c0.52832 -31.3281 5.59277 -135.561 48.5127 -161.345
c8.24805 -4.96777 33.8564 -20.1113 207.624 -20.1113c162.08 0 200.688 13.2002 214.505 23.1445c37.4883 26.9678 41.8008 119.84 41.9053 158.72c-0.0957031 31.2637 -3.37598 135.936 -41.9043 163.688zM451.677 88.7129
c-5.57617 -4.01562 -37.5898 -17.1123 -195.813 -17.1123c-152.968 0 -185.063 11.8721 -191.128 15.5283c-15.4404 9.26367 -31.7363 58.4395 -33.0166 134.016c1.26367 75.4082 17.7832 130.456 33.0469 139.608c6.08008 3.67188 38.2959 15.6396 191.096 15.6396
c158.096 0 190.199 -13.1836 195.815 -17.2158c13.7041 -9.87207 28.376 -61.8398 28.5918 -137.815c-0.21582 -77.168 -14.9834 -122.856 -28.5918 -132.648zM360.207 236.584l-143.969 88.3418c-4.95215 2.98438 -11.1123 3.06445 -16.1279 0.232422
c-5.03223 -2.83984 -8.14453 -8.16797 -8.14453 -13.9355v-176.72c0 -5.76758 3.1123 -11.0957 8.14453 -13.9355c2.44043 -1.37598 5.16016 -2.06445 7.85645 -2.06445c2.85645 0 5.73633 0.767578 8.26465 2.2959l143.968 88.376
c4.7998 2.9043 7.73535 8.09668 7.73535 13.7051s-2.92773 10.8164 -7.72754 13.7041zM223.975 162.846v120.048l97 -60.0156z" />
    <glyph glyph-name="uniE009" unicode="&#xe009;" 
d="M342.2 400.656c26.4404 0 50.3164 -10.8135 67.1328 -28.1816c20.9199 4.04785 40.6396 11.4238 58.3594 21.6396c-6.85645 -20.8164 -21.4404 -38.2803 -40.4082 -49.3281c18.5596 2.18359 36.3271 6.95117 52.8154 14.0791
c-12.3604 -17.8721 -27.9199 -33.6084 -45.8877 -46.1846c0.167969 -3.81641 0.263672 -7.67285 0.263672 -11.5127c0 -117.864 -92.5039 -253.809 -261.656 -253.809c-51.9199 0 -100.28 14.8164 -140.952 40.1123c7.18359 -0.839844 14.5039 -1.26367 21.9199 -1.26367
c43.0801 0 82.752 14.248 114.232 38.2002c-40.2637 0.688477 -74.248 26.5049 -85.9043 61.9209c5.6084 -1.04785 11.376 -1.60742 17.3115 -1.60742c8.36035 0 16.5039 1.08008 24.2002 3.12793c-42.0645 8.16797 -73.7686 44.2236 -73.7686 87.4639v1.14355
c12.4082 -6.6875 26.5762 -10.7031 41.6719 -11.167c-24.6885 16.0156 -40.9209 43.2793 -40.9209 74.2314c0 16.3604 4.54395 31.6885 12.4561 44.8164c45.3438 -53.9365 113.104 -89.4561 189.544 -93.1924c-1.57617 6.51172 -2.39258 13.3916 -2.39258 20.3115
c0 49.2715 41.1758 89.1992 91.9834 89.1992zM480.1 358.852h0.0800781h-0.0800781zM342.204 432.659c-62.832 0 -114.888 -45.9033 -122.903 -105.215c-51.4082 10.3281 -98.1602 37.5439 -131.752 77.4717c-6.0957 7.25586 -15.0801 11.4082 -24.4883 11.4082
c-0.832031 0 -1.67188 -0.0322266 -2.51172 -0.0966797c-10.2959 -0.824219 -19.5596 -6.56055 -24.8877 -15.3926c-11.1602 -18.5117 -17.0479 -39.7197 -17.0479 -61.3281c0 -14.4238 2.5918 -28.4717 7.50391 -41.6074
c-5.23242 -5.81641 -8.24805 -13.4248 -8.24805 -21.457v-1.14355c0 -31.3438 12.3916 -60.4316 32.9678 -82.2314c-1.18359 -5.48828 -0.919922 -11.2324 0.887695 -16.7363c7.0957 -21.5918 20.0156 -40.2002 36.7676 -54.376
c-11.248 -2.50391 -22.8564 -3.76758 -34.7041 -3.76758c-6.26367 0 -12.3594 0.34375 -18.127 1.04785c-1.28027 0.160156 -2.54395 0.21582 -3.81641 0.21582c-13.4404 0 -25.6406 -8.47168 -30.1689 -21.3916c-4.96777 -14.1602 0.543945 -29.8564 13.2803 -37.7842
c47.2637 -29.4082 101.855 -44.9365 157.855 -44.9365c182.016 0 291.504 142.488 293.632 281.672c14.8965 12.3281 28.0645 26.5918 39.2246 42.5762c4.06445 5.34375 6.48047 12.0156 6.48047 19.248c0 10.8877 -5.44824 20.5117 -13.7441 26.2959
c3.5918 12.3125 -0.503906 25.6406 -10.5039 33.7842c-5.83984 4.75195 -13 7.16797 -20.2002 7.16797c-5.50391 0 -11.0156 -1.4082 -15.9834 -4.28027c-10.5762 -6.0957 -21.8887 -10.9199 -33.8008 -14.3916c-21.5518 16.2158 -48.2715 25.248 -75.7119 25.248v0z" />
    <glyph glyph-name="uniE00A" unicode="&#xe00a;" 
d="M264.008 448.128l0.000976562 -111.936h112.16v-47.9844h-111.664l-0.160156 -139.264c0 -25.8877 1.34375 -42.5039 4.08008 -49.8721c4.26367 -11.624 19.7832 -26.5039 48.5908 -26.5039c22.3438 0 52.4873 6.71973 75.0791 23.624v-74.6562
c-18.8398 -8.98438 -36.3594 -12.6084 -51.623 -16.2324c-15.2803 -3.6084 -31.832 -5.4248 -49.5762 -5.4248c-19.7676 0 -76.832 0.543945 -100.248 60.2002c-4.21582 10.7363 -6.32812 26.3281 -6.32812 46.7363v181.312h-64.4238l0.311523 49.0645
c21.3281 0 85.3125 12.9521 85.3125 110.937h58.4883zM264.009 480.128h-58.4873c-17.6719 0 -32 -14.3281 -32 -32c0 -73.248 -40.8164 -78.9365 -53.3125 -78.9365c-17.6084 0 -31.9199 -14.2324 -32 -31.8408l-0.311523 -49.0645
c-0.0478516 -8.51172 3.3125 -16.6875 9.3125 -22.7354c6.01562 -6.03223 14.168 -9.42383 22.6875 -9.42383h32.4238v-149.312c0 -24.6885 2.7998 -43.8164 8.54395 -58.4404c14.4238 -36.7197 48.6875 -80.5039 130.031 -80.5039
c20.1436 0 39.2959 2.1123 56.9355 6.28027l3.52832 0.832031c14.9355 3.51172 34.0156 7.8877 54.5039 17.6553c11.1436 5.31152 18.2314 16.5439 18.2314 28.8877v74.6562c0 12.1123 -6.83984 23.1846 -17.6719 28.6084
c-4.52832 2.28027 -9.44043 3.39258 -14.3281 3.39258c-6.78418 0 -13.5283 -2.16016 -19.168 -6.37598c-19.0479 -14.2637 -43.4238 -17.248 -55.9043 -17.248c-12.7998 0 -17.5596 4.63965 -18.6074 5.87207c-0.543945 2.51172 -2.06348 11.8877 -2.06348 38.5039
l0.112305 107.264h79.7041c17.6719 0 32 14.3281 32 32v47.9844c0 17.6719 -14.3281 32 -32 32h-80.1602v79.9443c0 17.6719 -14.3281 32 -32 32v0z" />
    <glyph glyph-name="uniE00B" unicode="&#xe00b;" 
d="M290.88 439.752c1.9043 0 2.99902 -0.0800781 2.99902 -0.0800781h41.7842l-0.21582 -48h-41.5039c-22.8398 0 -22.3115 -19.5039 -22.3115 -19.5039v-76.0957h80.8164l-11.2803 -47.9355h-69.7998v-239.888h-47.9521l-0.0322266 239.888h-63.7041l-0.12793 47.9355
h63.8564v74.5918c0.0078125 65.04 54.0234 69.0879 67.4717 69.0879zM335.663 439.672h0.0800781h-0.0800781zM290.879 471.752c-11.5039 0 -33.9844 -1.9043 -55.2803 -14.7363c-20.1602 -12.1279 -44.1846 -36.9678 -44.1846 -86.3438v-42.5918h-31.8564
c-8.50391 0 -16.6562 -3.3916 -22.6719 -9.40723c-6 -6.03223 -9.36035 -14.1846 -9.32812 -22.7051l0.12793 -47.9355c0.0644531 -17.624 14.376 -31.8877 32 -31.8877h31.7041l0.0322266 -207.888c0 -17.6719 14.3281 -32 32 -32h47.9521c17.6719 0 32 14.3281 32 32
v207.888h37.7998c14.2002 0 26.7041 9.36035 30.7041 22.9844l11.2803 47.9355c2.83984 9.67188 0.952148 20.1279 -5.0957 28.1836c-6.03223 8.08008 -15.5283 12.832 -25.6084 12.832h-48.8164v31.5762l31.8164 0.015625c17.6084 0 31.9209 14.2324 32.001 31.8564
l0.21582 46.376c0.0322266 0.591797 0.0478516 1.16797 0.0478516 1.76758c0 17.6719 -14.2959 32 -31.9678 32h-0.0800781h-40.8877c-0.919922 0.0478516 -2.24805 0.0800781 -3.9043 0.0800781v0z" />
    <glyph glyph-name="uniE00C" unicode="&#xe00c;" 
d="M511.712 367.624c-0.360352 5.1123 -3.15039 9.73535 -7.49414 12.4551l-142.592 88.9844c-5.7998 3.6084 -13.2158 3.16016 -18.5273 -1.14355l-87.1123 -70.4717l-87.0957 70.4717c-5.2959 4.28027 -12.7676 4.76855 -18.5273 1.14453l-142.592 -88.9844
c-4.34375 -2.71973 -7.12793 -7.34375 -7.48828 -12.4561c-0.375977 -5.1123 1.73633 -10.0801 5.65625 -13.376l82.6084 -69.4082l-70.7676 -55.5918c-4.04785 -3.16016 -6.31152 -8.08789 -6.11133 -13.208s2.83984 -9.83203 7.1123 -12.6797l65.4883 -43.6562
c-3.21582 -2.91992 -5.27148 -7.10352 -5.27148 -11.7998v-64.168c0 -5.55957 2.8877 -10.7197 7.62402 -13.6396l160.984 -91.2158c2.55957 -1.57617 5.47168 -2.36035 8.37598 -2.36035s5.81641 0.799805 8.39258 2.37598l159.112 91.2158
c4.73633 2.91992 7.6084 8.08008 7.6084 13.624v75.2637c0 1.03223 -0.120117 2.04004 -0.303711 3.01562l62.0244 41.3438c4.26367 2.83984 6.90332 7.54395 7.11133 12.6641c0.200195 5.12793 -2.04785 10.04 -6.08008 13.208l-70.4561 55.5762l82.6562 69.4404
c3.92773 3.2959 6.04004 8.26367 5.66406 13.376zM368.33 284.671l-112.344 -70.3916l-112.344 70.3916l112.344 73.1123zM43.3945 364.575l114.232 71.2959l71.1836 -57.5918l-113.672 -73.9844zM114.955 264.887l112.984 -70.8008l-64.0322 -49.0156l-109 72.6562z
M111.004 141.886l44.6719 -29.7822c5.67188 -3.78418 13.1602 -3.52832 18.5918 0.607422l64.7041 49.5195v-141.4l-127.968 71.8398v49.2158zM399.1 92.6719l-128.129 -72.8389v143.888l66.3281 -50.9844c2.85645 -2.2002 6.3125 -3.3125 9.75293 -3.3125
c3.0957 0 6.18359 0.887695 8.87207 2.6875l43.168 28.7842v-48.2236h0.0078125zM456.723 217.761l-109.017 -72.6641l-63.7197 48.9678l113 70.8164zM396.826 304.297l-113.673 73.9844l71.2002 57.5918l114.232 -71.2959z" />
    <glyph glyph-name="uniE00D" unicode="&#xe00d;" 
d="M255.992 479.864c-34.9277 0 -68.2324 -7.05664 -98.5928 -19.7842c-1.05566 -0.335938 -2.08789 -0.776367 -3.07227 -1.33594c-90.6318 -39.4082 -154.191 -129.776 -154.191 -234.752c0 -141.08 114.784 -255.856 255.856 -255.856
c141.096 0 255.872 114.784 255.872 255.856c0 141.096 -114.776 255.872 -255.872 255.872zM479.863 223.991c0 -1.79199 -0.0976562 -3.55859 -0.137695 -5.33496c-24.5117 6.50391 -86.6953 18.7197 -163.399 1.87207
c-6.75977 15.4482 -14.2559 31.2881 -22.6396 47.4082c-0.704102 1.35156 -1.3916 2.63965 -2.08789 3.97559c82.0645 31.6719 116.944 74.3359 131.385 100.976c35.3438 -39.6084 56.8799 -91.7764 56.8799 -148.896zM398.766 396.28
c-7.45605 -17.5996 -34.5205 -63 -122.36 -95.9443c-39.4482 72.1123 -70.1123 115.336 -87.2959 137.32c21.1279 6.63184 43.5918 10.208 66.8799 10.208c54.2158 0 103.992 -19.3838 142.776 -51.584zM158.021 425.24c13.6084 -16.6396 45.1914 -58.5283 87.5518 -135.225
c-100 -30.1436 -181.224 -26.5195 -209.416 -23.8955c13.4082 70.0723 59.5361 128.656 121.864 159.12zM32.1328 223.991c0 3.44824 0.102539 6.87109 0.262695 10.2871c9.62402 -0.967773 24.5762 -2.04004 44.1445 -2.04004c43.4482 0 108.856 5.37598 184.505 29.0723
c1.42383 -2.6875 2.83203 -5.36719 4.27246 -8.13477c7.21582 -13.8877 13.7441 -27.5918 19.7041 -41.0322c-13.6885 -4.30371 -27.6963 -9.53613 -41.9365 -15.9844c-91.3115 -41.3516 -134.096 -100.352 -149.336 -126.168
c-38.1357 40.1602 -61.6162 94.376 -61.6162 154zM118.043 47.8779c8.12012 15.376 45.3027 77.04 138.223 119.128c13.9844 6.33594 27.7607 11.3916 41.1924 15.4561c30.3682 -77.1602 40.9043 -140.784 44.0879 -165.296
c-26.376 -10.9521 -55.2637 -17.0322 -85.5596 -17.0322c-52.0078 0 -99.8955 17.8799 -137.943 47.7441zM371.802 32.4775c-4.61621 30.7998 -16.0713 88.6963 -42.9834 157.832c74.2236 14.7764 132.976 0.280273 147.808 -4.04004
c-11.1123 -65.1045 -50.3682 -120.744 -104.824 -153.792z" />
    <glyph glyph-name="uniE00E" unicode="&#xe00e;" 
d="M453.976 407.76c-5.93555 5.54395 -13.7529 8.60742 -21.833 8.60742c-0.736328 0 -1.47266 -0.0322266 -2.2002 -0.0800781c-0.456055 -0.0322266 -5.5918 -0.34375 -13.6396 -0.34375c-13.3281 0 -39.3438 0.904297 -63.9834 6.96875
c-31.832 7.81641 -68.5596 44.0801 -79.248 51.2324c-5.37598 3.5918 -11.5762 5.3916 -17.7842 5.3916c-6.18359 0 -12.3916 -1.7998 -17.7676 -5.37598c-1.2959 -0.87207 -39.752 -42.0156 -77.376 -51.248c-24.624 -6.06445 -51.1436 -6.96875 -64.4551 -6.96875
c-8.04785 0 -13.1836 0.3125 -13.6875 0.344727c-0.704102 0.0478516 -1.4082 0.0800781 -2.1123 0.0800781c-8.0957 0 -15.9355 -3.08008 -21.8877 -8.63965c-6.47168 -6.04785 -10.1602 -14.5039 -10.1602 -23.3604v-80.0156c0 -295.816 193.56 -333.904 201.783 -335.393
c1.87207 -0.328125 3.76855 -0.503906 5.65625 -0.503906s3.7998 0.167969 5.65625 0.503906c8.21582 1.48828 203.2 39.5762 203.2 335.393v80.0156c0.015625 8.87207 -3.67285 17.3438 -10.1611 23.3916zM432.15 304.351c0 -272.456 -176.855 -303.889 -176.855 -303.889
s-175.44 31.4404 -175.44 303.889v80.0156s6.04785 -0.423828 15.8398 -0.423828c16.7842 0 45.0166 1.23242 72.0811 7.88867c44.3115 10.8721 87.5117 55.7041 87.5117 55.7041s45.1279 -44.832 89.3916 -55.7041c27.0957 -6.65625 54.8398 -7.88867 71.624 -7.88867
c9.78418 0 15.8398 0.423828 15.8398 0.423828s0.0078125 -10.1758 0.0078125 -80.0156zM323.8 306.878c-6.24805 6.24805 -16.3838 6.24805 -22.624 0l-45.2559 -45.2559l-45.2559 45.2559c-6.24805 6.24805 -16.3838 6.24805 -22.6318 0s-6.24805 -16.3838 0 -22.624
l45.2559 -45.2559l-45.2559 -45.2559c-6.24805 -6.24023 -6.24805 -16.376 0 -22.624s16.3838 -6.24805 22.6318 0l45.2559 45.2559l45.2559 -45.2559c6.24023 -6.24805 16.376 -6.24805 22.624 0s6.24805 16.3838 0 22.624l-45.2559 45.2559l45.2559 45.2559
c6.24805 6.24023 6.24805 16.376 0 22.624z" />
    <glyph glyph-name="uniE00F" unicode="&#xe00f;" 
d="M416.072 480h-320.144c-26.5117 0 -48 -21.4883 -48 -48v-416c0 -26.5117 21.4883 -48 48 -48h320.144c26.5117 0 48 21.4883 48 48v416c0 26.5117 -21.4883 48 -48 48zM432.072 16c0 -8.83203 -7.16797 -16 -16 -16h-320.144c-8.83203 -0 -16 7.16797 -16 16v416
c0 8.83203 7.16797 16 16 16h320.144c8.83203 0 16 -7.16797 16 -16v-416zM256.024 79.9121c-17.6396 0 -31.9199 -14.2959 -31.9199 -31.9121s14.2803 -31.9199 31.9199 -31.9199c17.6318 0 31.9199 14.3037 31.9199 31.9199s-14.2881 31.9121 -31.9199 31.9121z
M288.024 432h-64c-8.83203 0 -16 -7.16797 -16 -16s7.16797 -16 16 -16h64c8.83203 0 16 7.16797 16 16s-7.16797 16 -16 16z" />
    <glyph glyph-name="uniE017" unicode="&#xe017;" 
d="M510.256 265.312l-51.3945 76.8379l25.5762 89.4082c1.5918 5.6084 0.0322266 11.6406 -4.11133 15.7529c-4.12793 4.12793 -10.1279 5.65625 -15.7676 4.0166l-89.2559 -26.0645l-77.1436 51.9521c-4.85645 3.26367 -11.0801 3.65527 -16.2324 0.966797
c-5.18359 -2.65625 -8.51172 -7.93652 -8.7041 -13.7529l-2.76758 -92.9678l-73.248 -57.2959c-4.5918 -3.5918 -6.85547 -9.4082 -5.93555 -15.1602s4.9043 -10.5439 10.4082 -12.5117l68.7275 -24.6396c-0.463867 -0.368164 -0.952148 -0.696289 -1.38379 -1.12793
l-265.376 -265.376c-6.24805 -6.24805 -6.24805 -16.376 0 -22.624c3.12793 -3.12793 7.21582 -4.6875 11.3115 -4.6875s8.18359 1.55957 11.3115 4.6875l265.376 265.376c1.03223 1.03223 1.83203 2.2002 2.51953 3.4082l26.8965 -73.7764
c2 -5.47168 6.81641 -9.42383 12.5762 -10.3281c0.816406 -0.12793 1.64062 -0.183594 2.45703 -0.183594c4.9043 0 9.59277 2.26367 12.6572 6.21582l56.8877 73.584l91.9521 3.28027c5.83203 0.200195 11.0801 3.56055 13.7197 8.76855
c2.63184 5.19238 2.22363 11.4248 -1.05664 16.2412zM397.021 268.727c-4.75195 -0.160156 -9.18262 -2.43945 -12.0947 -6.19922l-43.7363 -56.5518l-24.4883 67.1602c-1.62402 4.47168 -5.16016 7.96777 -9.64062 9.57617l-67.2959 24.1279l56.3115 44.0322
c3.75195 2.93555 5.98438 7.37598 6.14453 12.1279l2.12793 71.4717l59.2959 -39.9355c3.95215 -2.65625 8.8877 -3.4082 13.4238 -2.09668l68.624 20.0479l-19.6719 -68.7363c-1.2959 -4.57617 -0.503906 -9.48828 2.16797 -13.4238l40.2803 -59.0645z" />
    <glyph glyph-name="uniE018" unicode="&#xe018;" 
d="M416.528 447.696h-32.2314v-107.704c0 -52.1924 -28.3281 -91.6807 -89.0479 -122.601c63.0322 -31.9043 89.5518 -71.0801 89.5518 -129.536c0 -38.0645 -0.167969 -70 -0.295898 -87.5596h32.0322c8.83984 0 16 -7.14355 16 -15.9834s-7.16016 -16 -16 -16h-321.064
c-8.83984 0 -16 7.16016 -16 16s7.16016 15.9834 16 15.9834h32.9678c-0.120117 17.5596 -0.295898 49.5039 -0.295898 87.5596c0 58.4561 26.1436 97.624 89.0713 129.528c-60.6162 30.9199 -88.5684 70.4082 -88.5684 122.601v107.712h-33.1758
c-8.83984 0 -16 7.15234 -16 16c0 8.83203 7.16016 15.9922 16 15.9922h321.064c8.83984 0 16 -7.16016 16 -15.9922c-0.0078125 -8.84766 -7.16016 -16 -16.0078 -16zM160.137 87.8564c0 -38.1436 0.175781 -70.1113 0.295898 -87.5596h192.088
c0.112305 17.4561 0.295898 49.4238 0.295898 87.5596c0 44.5039 -16.5596 79.0156 -96.5918 112.199c-80.0078 -33.1836 -96.0879 -67.6953 -96.0879 -112.199zM352.312 447.696h-191.681v-107.704c0 -30.6875 10.3203 -70.208 95.584 -105.264
c85.2803 35.0557 96.0967 74.5752 96.0967 105.264v107.704z" />
    <glyph glyph-name="uniE019" unicode="&#xe019;" 
d="M495.424 131.848l-0.000976562 129.071l8.04785 4.24805c5.23242 2.71973 8.52832 8.11133 8.59277 14.0156c0.0644531 5.8877 -3.12793 11.3438 -8.2959 14.1836l-240.72 128.8c-4.81641 2.63965 -10.6406 2.62402 -15.4883 -0.0478516l-239.4 -128.96
c-5.0957 -2.83984 -8.24805 -8.23145 -8.21582 -14.0791s3.24805 -11.1992 8.4082 -13.9834l105.192 -55.9922c-1.32031 -2.32812 -2.13672 -4.98438 -2.13672 -7.84863v-135.392c0 -4.55957 1.95215 -8.91992 5.36035 -11.9521
c3.47168 -3.08008 36.7197 -30.0479 138.376 -30.0479c101.296 0 135.439 25.4883 138.999 28.3926c3.71973 3.03223 5.87207 7.57617 5.87207 12.3926v138.864c0 2.24805 -0.47168 4.38379 -1.30371 6.31934l64.7119 34.1836v-112.256
c-9.48828 -5.55176 -15.9199 -15.7354 -15.9199 -27.5117c0 -17.6719 14.3281 -32 32 -32s32 14.3281 32 32c0 11.8477 -6.51953 22.0713 -16.0791 27.5996zM368.015 73.8145c-12.5762 -6.04785 -45.8574 -17.9521 -112.873 -17.9521
c-67.4404 0 -99.9688 12.6719 -111.736 18.7676v118.568l103.904 -55.3115c2.36035 -1.28027 4.98438 -1.91992 7.59277 -1.91992c2.54395 0 5.0957 0.608398 7.4082 1.83203l105.704 55.832v-119.816zM255.029 170.095l-205.8 109.279l206.16 110.488l206.8 -110.168z" />
    <glyph glyph-name="uniE01A" unicode="&#xe01a;" 
d="M255.992 480.064c-114.608 0 -207.839 -99.9502 -207.839 -222.798v-273.336c0 -6.6084 4.08008 -12.5439 10.248 -14.9199c1.85645 -0.736328 3.81641 -1.08008 5.75195 -1.08008c4.42383 0 8.76758 1.83984 11.8555 5.26367l60.2959 66.5596l47.2158 -65.2158
c2.98438 -4.12793 7.75195 -6.57617 12.8398 -6.6084h0.112305c5.04785 0 9.81543 2.3916 12.8311 6.45605l47.4082 63.6719l46.5918 -63.5762c3.01562 -4.1123 7.7998 -6.54395 12.9043 -6.54395c5.0957 0 9.8877 2.42383 12.9033 6.52734l47.7842 65.1436l59 -66.3115
c4.4082 -4.95215 11.4727 -6.68848 17.6406 -4.3125c6.2002 2.36035 10.3125 8.3125 10.3125 14.9521v273.336c0 122.84 -93.248 222.792 -207.856 222.792zM431.851 25.9863l-44.1992 49.6895c-3.21582 3.6084 -7.9043 5.65625 -12.7041 5.34473
c-4.83203 -0.232422 -9.2959 -2.62402 -12.1602 -6.51172l-46.5596 -63.5039l-46.5039 63.4561c-3 4.0957 -7.76758 6.52734 -12.8398 6.54297h-0.0644531c-5.06445 0 -9.81641 -2.3916 -12.832 -6.45605l-47.3438 -63.5762l-46 63.5439
c-2.83203 3.9043 -7.26367 6.32812 -12.0801 6.57617c-0.295898 0.015625 -0.576172 0.03125 -0.87207 0.03125c-4.50391 0 -8.81543 -1.9043 -11.8555 -5.26465l-45.6885 -50.4238v231.84c0 105.2 78.8877 190.8 175.84 190.8c96.9678 0 175.855 -85.5918 175.855 -190.8
v-231.288h0.0078125zM336.003 303.924c-17.6396 0 -31.9199 -14.2959 -31.9199 -31.9043c0 -17.624 14.2803 -31.9199 31.9199 -31.9199s31.9199 14.2959 31.9199 31.9199c0 17.6084 -14.2803 31.9043 -31.9199 31.9043zM176.003 303.924
c-17.6396 0 -31.9199 -14.2959 -31.9199 -31.9043c0 -17.624 14.2881 -31.9199 31.9199 -31.9199s31.9199 14.2959 31.9199 31.9199c0 17.6084 -14.2803 31.9043 -31.9199 31.9043z" />
    <glyph glyph-name="uniE01B" unicode="&#xe01b;" 
d="M371.608 442.224c-12.7998 6.00781 -24.9053 11.6641 -35.9209 17.1924c-28.2324 14.1436 -53.832 21.0156 -78.2324 21.0156c-49.1436 0 -83.1514 -28.3516 -104.479 -49.6797l-17.792 -17.8076l-11.8721 -11.8877l-17.2324 -17.2559l-26.8643 -26.8965
l-29.6641 -29.6875c-55.3438 -55.4004 -64.1836 -111.801 -28.6318 -182.905c5.51172 -11.04 11.1836 -23.168 17.1836 -36.0156c32.3516 -69.1924 65.792 -140.744 120.528 -140.744c1.53613 0 3.05566 0.0478516 4.60742 0.167969
c56.4883 4.42383 72.5127 77.1436 86.6562 141.296c2.24805 10.1602 4.37598 19.9043 6.55957 28.6406c3.7998 15.1035 11.2803 24.4873 31.7764 45.0312l2.81641 2.83203l1.73633 1.73633l2.24805 2.24023l2.3125 2.30371c20.5439 20.5439 29.9277 28.0156 45.0479 31.832
c8.65625 2.17578 18.376 4.31934 28.5117 6.54297c64.1123 14.1523 136.8 30.1846 141.2 86.7607c4.44043 57.416 -69.2314 91.9199 -140.495 125.288zM479.23 319.832c-3.1123 -39.8877 -92.4111 -51.6631 -145.555 -64.9912
c-23.5039 -5.93555 -37.8076 -18.376 -59.3916 -39.9678c-1.50391 -1.50391 -3.01562 -3.00781 -4.54395 -4.53613c-1.51172 -1.51172 -3.01562 -3.04785 -4.52734 -4.54395c-21.584 -21.6084 -34 -35.9043 -39.9121 -59.4404
c-13.3359 -53.1924 -25.0957 -142.584 -64.9355 -145.72c-0.719727 -0.0556641 -1.43945 -0.0712891 -2.15918 -0.0712891c-42.2725 0 -77.8408 96.1201 -109.225 158.832c-31.8721 63.752 -18.2158 105.112 22.6807 146.048
c7.84766 7.86426 17.6074 17.624 29.5674 29.5918c12.2158 12.2324 26.7441 26.7764 43.96 44c11.9521 11.9678 21.7041 21.7119 29.5605 29.5918c25.4004 25.4238 50.9688 40.3193 81.9609 40.3193c18.9043 0 39.8164 -5.52832 63.9365 -17.624
c63.7275 -31.9521 161.943 -68.2402 158.583 -111.488zM239.388 304.361h32v32h-32v-32zM239.388 352.361h32v32h-32v-32zM287.388 352.361h32v32h-32v-32zM287.388 304.361h32v32h-32v-32zM164.939 208.281l12.167 12.166c6 6 6 15.7363 0 21.7285
c-6 6 -15.7197 6 -21.7197 0l-12.1758 -12.1758l-12.1758 12.1758c-6 6 -15.7197 6 -21.7197 0s-6 -15.7275 0 -21.7275l12.1758 -12.1758l-12.1758 -12.1758c-6 -5.99219 -6 -15.7197 0 -21.7197s15.7275 -6 21.7197 0l12.1758 12.168l12.5283 -12.5283
c6 -6 15.7197 -6 21.7197 0s6 15.7363 0 21.7363z" />
    <glyph glyph-name="uniE01C" unicode="&#xe01c;" 
d="M254.208 -31.6396c-120.624 0 -206.183 83.6406 -206.183 198.889c0 61.1836 36.6885 127.096 38.248 129.855c3.18359 5.67188 9.43945 8.75195 15.9678 8.03223c6.45605 -0.832031 11.7676 -5.48828 13.4395 -11.7842
c0.0957031 -0.375977 9.9834 -37.376 23.0312 -57.9199c8.76758 -13.8242 17.6553 -23.5918 27.6553 -30.376c-6.76758 29.3281 -11.9512 73.4561 -3.51074 118.736c23.168 124.288 120.992 154.024 125.185 155.225c5.3916 1.54395 11.1113 0.160156 15.2158 -3.57617
c4.0957 -3.75195 5.96777 -9.37598 4.90332 -14.832c-0.160156 -0.87207 -16.3125 -87.8877 17.9678 -162.031c3.1123 -6.73633 7.45605 -14.5605 12.1279 -22.3926c1.32812 10.752 3.39258 22.1836 6.56055 33.2793c12.5762 43.9844 45.0967 59 46.4727 59.6084
c5.42383 2.47168 11.752 1.65527 16.4395 -2.0166c4.67188 -3.68848 6.91992 -9.64062 5.83984 -15.5049c-0.167969 -1.08008 -4.7041 -31.0156 20.7676 -73.4717c23 -38.3359 29.6396 -63.1836 29.6396 -110.84c0 -115.24 -88.2158 -198.88 -209.768 -198.88z
M97.8486 246.161c-8.78418 -22.1523 -17.8291 -51.627 -17.8291 -78.9072c0 -96.7041 72.0957 -166.888 174.184 -166.888c103 0 177.768 70.1836 177.768 166.888c0 41.7676 -5.16016 61.1592 -25.0801 94.375c-13.3125 22.1836 -19.8887 42.1279 -23.0322 58
c-3.16797 -5.12793 -6.1123 -11.3916 -8.26465 -18.9355c-9.75195 -34.0957 -7.2959 -73.9678 -7.26367 -74.376c0.47168 -7.13574 -3.87207 -13.7354 -10.624 -16.127s-14.2637 -0.03125 -18.4072 5.83301c-1.2002 1.7041 -29.6562 41.9844 -42.2002 69.1201
c-26.0479 56.2959 -25.6074 117.168 -22.9512 152.232c-26.3604 -15.3604 -66.832 -49.6719 -79.832 -119.456c-12.6562 -67.9043 11.9355 -135.8 12.1992 -136.472c2.12793 -5.54395 1 -11.832 -2.9043 -16.2959c-3.91992 -4.44043 -9.95215 -6.4082 -15.7686 -5.0166
c-1.98438 0.488281 -47.0166 12.2002 -76.1689 58.1445c-5.20801 8.23242 -9.87988 18.1924 -13.8242 27.8809z" />
    <glyph glyph-name="uniE01D" unicode="&#xe01d;" 
d="M512.688 154.104c-0.488281 6.91992 -26.5049 159.653 -30.5771 184.109c-0.391602 2.34375 -0.703125 4.83984 -1.04688 7.47168c-3.14355 24.5762 -9.01562 70.3125 -82.7354 70.3125c-8.83984 0 -16 -7.16016 -16 -16s7.16016 -16 16 -16
c45.5596 0 47.9678 -18.7041 51 -42.3926c0.391602 -3.03223 0.767578 -5.93652 1.21582 -8.64062c1.87207 -11.2637 10.3516 -56.0801 17.6719 -100.512c-18.7764 14.3115 -42.1445 22.9033 -67.5605 22.9033c-40.8242 0 -77.1602 -21.9756 -97.1357 -54.6797
c-9.6084 3.63184 -25.9121 8.16797 -47.6963 8.16797c-21.4717 0 -37.2559 -4.56836 -47.0156 -8.54395c-19.4238 32.9121 -55.1514 55.0645 -96.1357 55.0645c-26.6318 0 -51.3682 -9.36035 -70.9199 -24.9199c7.41602 44.9922 16.2002 91.0166 18.1045 102.513
c0.456055 2.7041 0.832031 5.6084 1.21582 8.64062c3.03223 23.6885 5.44043 42.3926 51 42.3926c8.83984 0 16 7.16016 16 16s-7.16016 16 -16 16c-73.7197 0 -79.5918 -45.7363 -82.7354 -70.3125c-0.34375 -2.62402 -0.655273 -5.12793 -1.04688 -7.47168
c-4.08008 -24.4561 -28.5039 -176.184 -28.9844 -183.111c-0.112305 -1.54395 0.0712891 -3.02441 0.375 -4.47266c-0.152344 -2.31152 -0.360352 -4.60742 -0.360352 -6.95117c0 -61.6719 51.6719 -111.672 113.344 -111.672s111.672 50 111.672 111.672
c0 9.32812 -1.27246 18.3359 -3.4248 26.9922c6.55957 2.63965 18.416 6.16797 34.9043 6.16797c16.0879 0 28.2314 -3.21582 35.1514 -5.66406c-2.30371 -8.81641 -3.66406 -17.9844 -3.66406 -27.4961c0 -61.6719 51.6719 -111.672 113.344 -111.672
s111.672 50 111.672 111.672c0 1.67188 -0.175781 3.30371 -0.248047 4.95996c0.488281 1.74414 0.760742 3.56836 0.617188 5.47266zM112.671 64.0049c-44.0957 0 -81.3438 36.4883 -81.3438 79.6719s37.248 79.6719 81.3438 79.6719
c43.9355 0 79.6719 -35.7363 79.6719 -79.6719s-35.7363 -79.6719 -79.6719 -79.6719zM400.655 64.0049c-44.0957 0 -81.3447 36.4883 -81.3447 79.6719s37.248 79.6719 81.3438 79.6719c38 0 69.8164 -26.7441 77.7285 -62.3926
c0.328125 -3.26367 0.600586 -6.33594 0.808594 -9.14355c0.0957031 -1.34375 0.456055 -2.60742 0.919922 -3.83105c0.0800781 -1.44043 0.21582 -2.85645 0.21582 -4.3125c0 -43.9277 -35.7363 -79.6641 -79.6719 -79.6641z" />
    <glyph glyph-name="uniE01E" unicode="&#xe01e;" 
d="M511.656 243.352c-0.679688 5.65625 -2.80957 10.8525 -6.0498 15.2285h0.0800781l-0.44043 0.44043c-1.63965 2.16016 -3.55957 4.06445 -5.70312 5.75293l-208.64 201.704c-18.1123 18.1123 -49.752 18.1445 -67.8877 0.000976562l-208.608 -200.128
c-4.51172 -4.2002 -14.4395 -15.5439 -14.4395 -26.6719v-239.76c0 -17.5918 14.4082 -32 32 -32h448c17.5918 0 32 14.4082 32 32v239.128c0.112305 1.44043 -0.03125 2.88086 -0.311523 4.30469zM134.895 116.828l-102.928 -94.7842v185.592zM167.783 103.636
c1.14355 0.759766 2.2334 1.62402 3.18555 2.7041c0.183594 0.208008 0.311523 0.456055 0.479492 0.671875l70.584 65c3.62402 2.91992 7.91992 4.45605 12.4395 4.45605c4.5918 0 9.18359 -1.6084 12.2637 -4l191.8 -172.552h-403.368zM378.729 114.716l101.24 89.8477
v-180.92zM51.8896 258.579l193.752 185.272c3.03223 3.01562 7.04785 4.6875 11.3115 4.6875c4.28027 0 8.2959 -1.67188 11.3281 -4.6875l180.688 -172.176h-0.488281l27.4482 -27.8965l-121.152 -107.52l-67.624 60.832
c-18.8398 14.7676 -45.8877 15.4072 -65.8398 -0.688477l-62.752 -57.792l-120.896 106.672l13.4961 13.2959h0.727539z" />
    <glyph glyph-name="uniE01F" unicode="&#xe01f;" 
d="M511.656 243.36c-0.679688 5.65625 -2.80957 10.8525 -6.0498 15.2285h0.0800781l-0.44043 0.44043c-1.63965 2.16016 -3.55957 4.06445 -5.70312 5.75293l-83.5762 84.1924v51.6318c0 8.83984 -7.16016 16 -16 16h-50.6641l-58.4004 49.8564
c-18.1123 18.1123 -49.752 18.1445 -67.8877 0.000976562l-58.2002 -49.8564h-52.8477c-8.83984 0 -16 -7.16016 -16 -16v-52.6885l-81.5596 -81.5596c-8.67188 -5.73633 -14.4395 -15.5439 -14.4395 -26.6719v-239.752c0 -17.5918 14.4082 -32 32 -32h448
c17.5918 0 32 14.4082 32 32v239.12c0.112305 1.44043 -0.03125 2.88086 -0.311523 4.30469zM134.431 117.244l-102.464 -95.04v185.448zM165.279 102.244c2.1123 0.904297 4.06445 2.26465 5.68848 4.1123c0.856445 0.967773 1.52832 2.03223 2.1123 3.12793
l68.9521 63.9678c3.62402 2.91992 7.91992 4.45605 12.4395 4.45605c4.5918 0 9.18359 -1.6084 12.2637 -4l191.92 -173.968h-403.656zM379.167 115.132l100.8 89.4482v-180.816zM448.967 271.684h-0.488281l27.4482 -27.8955l-59.96 -53.2158v114.104zM245.639 443.836
c3.03223 3.01562 7.04883 4.6875 11.3125 4.6875c4.28027 0 8.2959 -1.67188 11.3281 -4.6875l32.3115 -27.2324h-87.2158zM383.968 384.604v-222.424l-28.6562 -25.4404l-68.1602 61.7842c-18.8398 14.7676 -45.8877 15.4072 -65.8398 -0.688477l-63.3115 -58.7197
l-30.0322 26.5039v218.984h256zM51.8877 258.588l44.0791 44.0635v-108.808l-58.3115 51.4482l13.4961 13.2959h0.736328z" />
    <glyph glyph-name="uniE027" unicode="&#xe027;" 
d="M452.808 124.056c-18.6719 22.7119 -44.2412 54.873 -44.2412 87.6807v104.48c0 90.0078 -67.3203 163.24 -153.345 163.24c-86.04 0 -152.832 -73.2324 -152.832 -163.24v-104.48c0 -32.2559 -27.7441 -62.7441 -45.3359 -86.4004
c-15.8242 -21.2559 -28.3125 -38.0479 -19.8809 -54.832c7.41602 -14.7676 25.9844 -16.6641 41.3281 -16.6641h91.6797c0.0244141 -47.1035 38.2246 -85.2871 85.3369 -85.2871c47.1201 0 85.3203 38.1836 85.3447 85.2871h93.832c9.75977 0 32.5762 0 40.4326 16.5996
c7.92773 16.8076 -4.75977 32.2559 -22.3193 53.6162zM255.503 2.07227c-28.6084 0 -51.8154 23.1758 -51.8555 51.7676h103.712c-0.0400391 -28.5918 -23.2324 -51.7676 -51.8564 -51.7676zM434.696 87.9043h-356.192c-2.44824 0 -4.49609 0.0800781 -6.18457 0.183594
c3.2959 5.10352 8.13574 11.623 12.0713 16.9268c19.4961 26.2002 52.0723 63.1846 52.0723 106.713v104.48c0 71.2324 51.5195 129.177 118.76 129.177s119.28 -57.9443 119.28 -129.177v-104.48c0 -45.0078 30.04 -82.624 51.9844 -109.304
c3.69629 -4.49609 8.12012 -9.87988 11.5605 -14.4795c-1.01562 -0.0244141 -2.13574 -0.0400391 -3.35156 -0.0400391z" />
    <glyph glyph-name="uniE028" unicode="&#xe028;" 
d="M510.528 60.0156l-93.6328 173.152c9.55176 21.6797 14.8955 45.6396 14.8955 70.8477c0 97.1523 -78.7598 175.904 -175.903 175.904c-97.168 0 -175.92 -78.7598 -175.92 -175.903c0 -25.8164 5.6084 -50.3125 15.5928 -72.3926l-94.0479 -171.528
c-3.03223 -5.51172 -2.52832 -12.3115 1.26367 -17.3438c3.7998 -5.01562 10.2158 -7.37598 16.3438 -5.93555l80.3115 18.4238l27.4883 -76.5596c2.14355 -5.95215 7.5752 -10.0801 13.8711 -10.5439c0.408203 -0.0322266 0.799805 -0.0478516 1.18359 -0.0478516
c5.85645 0 11.2969 3.21582 14.0967 8.43945l81.8477 152.488c5.9043 -0.599609 11.8965 -0.90332 17.9609 -0.90332c5.55957 0 11.0479 0.288086 16.4717 0.799805l83.624 -152.504c2.83203 -5.16016 8.21582 -8.3125 14.0322 -8.3125
c0.408203 0 0.832031 0.015625 1.24805 0.0478516c6.28027 0.503906 11.6885 4.62402 13.8164 10.5439l27.4883 76.5596l80.3125 -18.4238c6.16016 -1.48828 12.5117 0.90332 16.3115 5.90332c3.81641 4.99219 4.32812 11.7598 1.34375 17.2881zM144.888 23.3281
l-20.127 56.0791c-2.75195 7.62402 -10.7363 12.0645 -18.6406 10.1846l-59.4004 -13.624l67.7041 123.488c22.2959 -30.1201 53.9756 -52.8398 90.7197 -63.8955zM112.112 304.016c0 79.2725 64.5039 143.769 143.784 143.769c79.2725 0 143.769 -64.4961 143.769 -143.769
s-64.4961 -143.784 -143.769 -143.784c-79.2881 0 -143.784 64.5117 -143.784 143.784zM405.872 89.5918c-7.93555 1.87207 -15.8877 -2.56055 -18.6396 -10.1846l-20.2637 -56.4883l-61.5762 112.28c37.7197 11.0479 70.168 34.3682 92.752 65.3682l67.4238 -124.664z" />
    <glyph glyph-name="uniE029" unicode="&#xe029;" 
d="M510.512 114.296l-41.1514 75.6475c-0.0644531 0.104492 -0.0488281 0.200195 -0.113281 0.295898l-2.93555 5.07227c-1.63965 2.80762 -4.21582 4.61523 -7.0957 5.29492c-2.84766 0.704102 -5.99121 0.272461 -8.70312 -1.4873l-4.91992 -3.16797
c-0.0957031 -0.0556641 -0.151367 -0.143555 -0.24707 -0.208008l-72.7998 -49.1602c-5.44043 -3.50391 -7.20801 -10.8398 -3.96777 -16.4561l3.27246 -3.59961c3.24023 -5.5918 10.6318 -5.82422 16.0801 -2.32031l43.5195 29.5918
c-10.3037 -83 -77.3682 -146.696 -159.48 -154.088v320.8h64.0244c8.83203 0 16 7.16797 16 16s-7.16797 16 -16 16h-64.7197c-0.120117 0.416016 -0.223633 0.832031 -0.383789 1.23242c28.5518 6.63965 49.8477 32.1836 49.8477 62.7676
c0 35.624 -28.8721 64.5039 -64.5039 64.5039c-35.624 0 -64.4961 -28.8721 -64.4961 -64.5039c0 -30.4082 21.0557 -55.832 49.3672 -62.6396c-0.167969 -0.44043 -0.288086 -0.904297 -0.423828 -1.36035h-64.6875c-8.83203 0 -16 -7.16797 -16 -16s7.16797 -16 16 -16
h63.9922v-320.792c-82.0879 7.3916 -149.08 71.0635 -159.408 154.056l43.4717 -29.5596c5.44043 -3.50391 12.832 -3.27148 16.0723 2.32031l3.28027 3.59961c3.24023 5.6084 1.47266 12.9521 -3.97559 16.4561l-72.7998 49.1602
c-0.0957031 0.0722656 -0.151367 0.160156 -0.239258 0.208008l-4.92773 3.16797c-2.7041 1.75977 -5.84766 2.18359 -8.7041 1.4873c-2.87207 -0.679688 -5.45605 -2.49609 -7.0957 -5.2959l-2.93555 -5.08008
c-0.0556641 -0.0957031 -0.0478516 -0.191406 -0.103516 -0.294922l-41.1357 -75.6484c-3.24805 -5.58398 -1.47168 -12.9355 3.97656 -16.4473l4.55957 -1.71191c5.44043 -3.49609 12.1289 -0.320312 15.377 5.27148l23.9521 44.4883
c14.6885 -102.36 102.553 -178.912 206.641 -178.912c104.032 0 191.96 76.5439 206.68 178.856l23.9199 -44.4316c3.24805 -5.5918 9.94434 -8.76758 15.3848 -5.27148l4.55957 1.71191c5.44824 3.51172 7.22461 10.8633 3.97656 16.4473zM223.744 416.512
c0 17.9199 14.5762 32.5039 32.4961 32.5039s32.5039 -14.5762 32.5039 -32.5039s-14.5762 -32.5039 -32.5039 -32.5039c-17.9121 0.0078125 -32.4961 14.584 -32.4961 32.5039z" />
    <glyph glyph-name="uniE02A" unicode="&#xe02a;" 
d="M511.824 334.76c0.232422 11.832 -2.95215 39.4238 -38.9199 49.0322l-357.88 71.9678l-3.32812 0.34375c-26.4717 0 -48 -21.5283 -48 -48v-64.3516l-16 0.0400391c-26.376 -0.112305 -47.8164 -21.5762 -47.8164 -47.9844v-255.904c0 -26.4717 21.5283 -48 48 -48
h416.232c26.4717 0 48 21.5283 48 48zM95.6953 408.104c0 8.36035 6.44043 15.2334 14.6084 15.9375l353 -71.4404c0.12793 -0.0644531 -2.62402 -8.96875 -15.4404 -8.80078h-352.168v64.3037zM480.119 39.8965c0 -8.83203 -7.16797 -15.999 -16 -15.999h-416.24
c-8.83203 0 -16 7.16797 -16 16v255.912c0 8.83203 7.16797 16 16 16h400.032c15.7041 0 32.2002 5.35156 32.2002 15.9434v-287.856h0.0078125zM95.9111 199.754c-17.6719 0 -32 -14.3281 -32 -32s14.3281 -32 32 -32s32 14.3281 32 32s-14.3281 32 -32 32z" />
    <glyph glyph-name="uniE02B" unicode="&#xe02b;" 
d="M496 144l-16.1348 -0.000976562v0.807617c0 80.96 -43.2637 151.904 -107.832 191.192h80.4082c5.54395 -9.51953 15.752 -16 27.5596 -16c17.6719 0 32 14.3281 32 32s-14.3281 32 -32 32c-11.8164 0 -22.0166 -6.48047 -27.5605 -16h-148.44v16
c0 8.83203 -7.16797 16 -16 16h-64c-8.83203 0 -16 -7.16797 -16 -16v-16h-148.44c-5.54395 9.51953 -15.7441 16 -27.5605 16c-17.6719 0 -32 -14.3281 -32 -32s14.3281 -32 32 -32c11.8164 0 22.0166 6.48047 27.5605 16h80.4004
c-64.5684 -39.2959 -107.824 -110.231 -107.824 -191.191v-0.807617h-16.1357c-8.83203 0 -16 -7.16797 -16 -16v-64c-0 -8.83203 7.16797 -16 16 -16h64c8.83203 0 16 7.16797 16 16v64c0 8.83203 -7.16797 16 -16 16h-15.8643v0.807617
c0 89.2236 61.2324 164.336 143.864 185.696v-10.5039c0 -8.83203 7.16797 -16 16 -16h64c8.83203 0 16 7.16797 16 16v10.5039c82.6318 -21.3682 143.864 -96.4805 143.864 -185.696v-0.807617h-15.8643c-8.83203 0 -16 -7.16797 -16 -16v-64
c0 -8.83203 7.16797 -16 16 -16h64c8.83203 0 16 7.16797 16 16v64c0 8.83203 -7.16797 16 -16 16zM64.001 79.999h-32v32h32v-32zM272.001 335.999h-32v32h32v-32zM480.001 79.999h-32v32h32v-32z" />
    <glyph glyph-name="uniE02C" unicode="&#xe02c;" 
d="M480 448.2h-448c-17.6719 0 -32 -14.3281 -32 -32v-288.752c0 -17.6719 14.3281 -32 32 -32h63.7676v-79.6562c0 -6.45605 3.87207 -12.2637 9.81641 -14.752c2 -0.839844 4.1123 -1.24805 6.18457 -1.24805c4.12793 0 8.16797 1.5918 11.2158 4.5918l92.5117 91.0645
h264.504c17.6719 0 32 14.3281 32 32v288.752c0 17.6719 -14.3281 32 -32 32zM480 127.456h-277.608l-74.624 -73.4561v73.4561h-95.7676v288.744h448v-288.744zM112 255.496h288c8.83203 0 16 7.16797 16 16s-7.16797 16 -16 16h-288c-8.83203 0 -16 -7.16797 -16 -16
s7.16797 -16 16 -16zM112 319.496h288c8.83203 0 16 7.16797 16 16s-7.16797 16 -16 16h-288c-8.83203 0 -16 -7.16797 -16 -16s7.16797 -16 16 -16zM112 191.496h192c8.83203 0 16 7.16797 16 16s-7.16797 16 -16 16h-192c-8.83203 0 -16 -7.16797 -16 -16
s7.16797 -16 16 -16z" />
    <glyph glyph-name="uniE02D" unicode="&#xe02d;" 
d="M256 -32.0801c-10.1436 0 -19.6865 3.93945 -26.8701 11.0996l-218.256 218.248c-14.7676 14.8398 -14.7676 38.9756 -0.03125 53.7832l79.9521 79.9355c4.93555 4.93555 12.5117 6.11133 18.7197 2.87109c6.18359 -3.23242 9.55957 -10.1123 8.34375 -16.9844
c-0.816406 -4.57617 -1.18457 -8.24805 -1.18457 -11.5596c0 -35 28.4883 -64.0723 63.5039 -64.0723c35.0479 0 60.6396 29.0723 60.6396 64.0723c0 35.0479 -25.5918 63.5439 -60.6396 63.5439c-3.28027 0 -6.93652 -0.375977 -11.5127 -1.18359
c-6.93555 -1.28027 -13.752 2.16016 -16.9844 8.34375c-3.23242 6.2002 -2.06445 13.7842 2.87109 18.7197l74.5439 74.5596c14.4404 14.376 39.4082 14.3438 53.7842 0.0322266l54.5762 -54.6084c11.3916 35.4082 44.6396 61.1123 83.7676 61.1123
c48.5117 0 87.9834 -39.4883 87.9834 -88.0166c0 -39.1279 -25.6875 -72.376 -61.1113 -83.752l53.0156 -52.9844c14.7998 -14.8398 14.7998 -38.9756 0.015625 -53.7998l-218.224 -218.232c-7.21582 -7.19238 -16.7598 -11.1279 -26.9033 -11.1279zM87.4492 282.396
l-53.9482 -53.9375c-2.32812 -2.34375 -2.32812 -6.21582 0.0322266 -8.5918l218.184 -218.192c3.06445 -3.03223 5.47266 -3.06445 8.59277 0.03125l218.176 218.192c2.34375 2.36035 2.34375 6.2002 -0.0166016 8.57617l-76.9521 76.9043
c-4.81641 4.81641 -6.06445 12.1602 -3.09668 18.2803s9.42383 9.75195 16.2637 8.91992l2.44043 -0.311523c1.34375 -0.183594 2.6875 -0.407227 4.0957 -0.407227c30.8721 0 55.9844 25.0957 55.9844 55.9521c0 30.8877 -25.1123 56.0156 -55.9844 56.0156
c-30.8564 0 -55.9688 -25.1279 -55.9688 -56.0156c0 -1.28027 0.200195 -2.52832 0.375977 -3.78418l0.34375 -2.85645c0.719727 -6.75195 -2.88867 -13.2158 -9.0166 -16.1436c-6.08008 -2.9043 -13.4082 -1.65625 -18.2002 3.12793l-78.4717 78.5117
c-3.06445 3.03223 -5.47266 3.06445 -8.59277 -0.03125l-48.5596 -48.5596c41.6396 -10.3125 69.6875 -47.9844 69.6875 -92.7686c0 -52.6562 -39.96 -96.0645 -92.6475 -96.0645c-44.7686 0.0078125 -82.4248 31.5439 -92.7207 73.1523z" />
    <glyph glyph-name="uniE02E" unicode="&#xe02e;" 
d="M476.368 352.536h-60.3604v127.224h-320.016v-127.224h-60.3604c-19.6562 0 -35.6562 -16 -35.6562 -35.6719v-216.944c0 -19.6719 16 -35.6719 35.6562 -35.6719h60.3604v-96.0078h320.016v96.0078h60.3604c19.6562 0 35.6562 16 35.6562 35.6719v216.944
c0 19.6719 -16 35.6719 -35.6562 35.6719zM127.992 448.256h256.016v-95.7197h-256.016v95.7197zM384.008 0.240234h-256.016v176.2h256.016v-176.2zM480.024 99.9199c0 -2.04004 -1.63965 -3.67188 -3.65527 -3.67188h-60.3604v112.192h-320.016v-112.184h-60.3604
c-2.01562 0 -3.65527 1.63184 -3.65527 3.67188v216.936c0 2.03223 1.63965 3.67188 3.65527 3.67188h440.736c2.01562 0 3.65527 -1.63965 3.65527 -3.67188v-216.944zM416 288.28h-16c-8.83203 0 -16 -7.16797 -16 -16s7.16797 -16 16 -16h16c8.83203 0 16 7.16797 16 16
s-7.16797 16 -16 16z" />
    <glyph glyph-name="uniE02F" unicode="&#xe02f;" 
d="M512 319.752c0 17.6719 -14.3271 32 -31.999 32h-54.624c14.1357 13.9443 23.1836 32.2246 23.1836 54.7363c0 27.7197 -15.9199 57.832 -60.6084 57.832c-58.7998 0 -107.92 -62.6084 -131 -97.7041c-23.0957 35.0879 -73.7197 97.6963 -132.512 97.6963
c-44.6885 0 -60.6084 -30.1123 -60.6084 -57.832c0 -22.5039 9.2959 -40.792 23.7197 -54.7363h-55.5518c-17.6719 0 -32 -14.3281 -32 -32v-95.7842h32.2803v-208.28c0 -17.6719 14.3281 -32 32 -32h383.84c17.6719 0 32 14.3281 32 32v208.288h31.8799v95.7842z
M387.953 432.312c19.7842 0 28.6074 -8.3125 28.6074 -25.832c0 -35.5439 -39.6719 -54.7197 -76.9834 -54.7197h-54.168c22.7363 33.7676 62.752 80.5518 102.544 80.5518zM124.44 432.311c39.7998 0 81.3262 -46.7842 104.062 -80.5439h-54.1836
c-37.3115 0 -78.4873 19.6719 -78.4873 55.2158c0 17.5117 8.82422 25.3281 28.6084 25.3281zM479.998 255.967h-208v63.7842h208v-63.7842zM31.998 319.751h208v-63.7842h-208v63.7842zM64.2783 223.967h175.72v-208.28h-175.72v208.28zM448.126 15.6865h-176.128v208.28
h176.128v-208.28z" />
    <glyph glyph-name="uniE030" unicode="&#xe030;" 
d="M16.8799 448.12h224c8.83203 0 16 7.16797 16 16s-7.16797 16 -16 16h-224c-8.83203 0 -16 -7.16797 -16 -16s7.16016 -16 16 -16zM16.8799 352.12h224c8.83203 0 16 7.16797 16 16s-7.16797 16 -16 16h-224c-8.83203 0 -16 -7.16797 -16 -16s7.16016 -16 16 -16z
M256.88 272.12c0 8.83203 -7.16797 16 -16 16h-224c-8.83203 0 -16 -7.16797 -16 -16s7.16797 -16 16 -16h224c8.83203 0 16 7.16797 16 16zM506.439 317.729l-156.457 156.447c-4.95215 4.95996 -12.3281 5.91992 -18.2959 3.00781
c-6.27246 -2.16797 -10.8086 -8.05566 -10.8086 -15.0635v-354.2c-16.96 12.5684 -39.2158 20.2646 -63.6875 20.2646c-53.0322 0 -96.0479 -35.8877 -96.0479 -80.1436c0 -44.2637 43.0156 -80.168 96.0479 -80.168c53.0645 0 96.0488 35.9043 96.0488 80.168
c0 2.00781 -0.183594 3.96777 -0.359375 5.93555v372.048l130.92 -130.928c6.24805 -6.24805 16.3838 -6.24805 22.6318 0s6.24805 16.3838 0.0078125 22.6318zM320.879 46.4883c-1.15234 -22.248 -27.0967 -46.4092 -64.0645 -46.4092
c-37.8242 0 -64.1758 25.2803 -64.1758 47.9365c0 22.6719 26.3516 47.9199 64.1758 47.9199c36.9678 0 62.9121 -24.1279 64.0645 -46.3916v-3.05566z" />
    <glyph glyph-name="uniE031" unicode="&#xe031;" 
d="M507.424 290.168l-184.081 185.011c-3.96777 3.98438 -9.6875 5.6084 -15.1592 4.24805c-5.45605 -1.32812 -9.7998 -5.42383 -11.4717 -10.7842c-11.0801 -35.6562 -12.3604 -67.9199 -3.89648 -97.3438c-0.776367 -0.536133 -1.52051 -1.12012 -2.20898 -1.80859
l-85.5518 -85.5361c-27.5996 12.7998 -57.2715 19.7275 -86.8477 19.7275c-18.7998 0 -37.2314 -2.78418 -54.7832 -8.23242c-5.34375 -1.67188 -9.43945 -6 -10.7832 -11.4238c-1.34375 -5.44043 0.232422 -11.168 4.18457 -15.1436l109.488 -110.192l-153.08 -155.52
l-13.3115 -35.0645l32.1836 12.4404l156.68 155.52l110.912 -111.632c3.03223 -3.06445 7.14453 -4.7207 11.3447 -4.7207c1.26367 0 2.54395 0.160156 3.81641 0.456055c5.45605 1.34375 9.7998 5.43945 11.4717 10.7998c14.4883 46.6162 10.2402 96.6719 -10.168 141.56
l87.3516 87.3682c0.311523 0.3125 0.527344 0.664062 0.81543 1c13.1836 -3.76758 26.8477 -5.7832 41.0234 -5.7832c17.6084 0 36.2803 2.52832 55.4883 8.50391c5.34375 1.65625 9.43945 6 10.7832 11.4238c1.32812 5.42383 -0.248047 11.1514 -4.2002 15.127z
M301.575 67.9307l-201.394 202.704c51.6885 6.03223 107.425 -14.7998 147.785 -55.1602c40.1602 -40.1523 59.752 -95.6484 53.6084 -147.544zM300.109 201.73c-8.41602 12.8643 -18.2314 25.0869 -29.5117 36.375c-11.2324 11.2324 -23.5049 21.1289 -36.4805 29.665
l72.0645 72.0479c7.35156 -12.7842 16.832 -25 28.5039 -36.6641c11.9277 -11.9199 24.5439 -21.5684 37.7998 -29.0322zM357.311 325.777c-30.7676 30.7676 -42.625 65.0635 -36.3447 106.439l143.456 -144.2c-41.3281 -5.92773 -75.7998 6.44824 -107.111 37.7607z" />
    <glyph glyph-name="uniE032" unicode="&#xe032;" 
d="M480 440.048h-448c-17.5918 0 -32 -14.4082 -32 -32v-368.096c0 -17.5918 14.4082 -32 32 -32h448c17.5918 0 32 14.4082 32 32v368.096c0 17.5918 -14.4082 32 -32 32zM480 39.9521h-448.001v94.2803l128.424 124.456l132.392 -132.248
c5.45605 -6.62402 15.168 -5.78418 22.0645 -0.560547l58.4404 52.9043l105.4 -108.192c0.400391 -0.400391 0.848633 -0.696289 1.28027 -1.04004v-29.5996zM479.999 115.104l-94.0166 96.209c-5.7041 5.62402 -14.6396 6.2002 -20.9678 1.37598l-60.2803 -52.5117
l-132.472 131.04c-2.83203 3.42383 -6.91992 5.51172 -11.3438 5.7998c-4.4082 0.160156 -8.75195 -1.28027 -11.9844 -4.3125l-116.936 -113.8v229.144h448v-292.944zM367.998 279.938c17.6396 0 31.9199 14.3037 31.9199 31.9199
c0 17.6084 -14.2803 31.9121 -31.9199 31.9121s-31.9199 -14.3037 -31.9199 -31.9121c0 -17.6162 14.2803 -31.9199 31.9199 -31.9199z" />
    <glyph glyph-name="uniE033" unicode="&#xe033;" 
d="M496.592 412.496l-160.479 66.5352l-159.72 -63.2158l-160.984 63.1836c-1.37598 0.408203 -2.71973 0.560547 -3.9834 0.560547c-6.56836 0.0322266 -11.4248 -4.87207 -11.4248 -12.248v-415c0 -8.78418 6.93555 -17.9365 15.4072 -20.2803l161.168 -63.5918
l159.504 64.752l160.512 -63.0645c1.37598 -0.375977 2.71973 -0.55957 3.9834 -0.55957c6.55957 0 11.4238 4.87207 11.4238 12.248v410.368c0 8.78418 -6.93555 17.9443 -15.4072 20.3125zM192.001 389.432l128 50.1514v-380.752l-128 -50.5918v381.192zM32.001 436.655
l128 -47.2881v-380.88l-128 52.1357v376.032zM480.001 10.999l-128 48.1924v379.912l128 -55.1924v-372.912z" />
    <glyph glyph-name="uniE034" unicode="&#xe034;" 
d="M10.9199 329.096l237.544 -129.36c2.3916 -1.2959 5.01562 -1.95215 7.65527 -1.95215c2.6084 0 5.2168 0.639648 7.59277 1.91992l240.048 129.36c5.23242 2.81641 8.48828 8.3125 8.4082 14.2646c-0.0800781 5.96777 -3.45605 11.376 -8.75195 14.0801l-237.56 120.64
c-4.52832 2.2959 -9.87207 2.31152 -14.4404 0.03125l-240.024 -120.64c-5.31152 -2.67188 -8.71973 -8.08008 -8.81543 -14.0322s3.12793 -11.4717 8.34375 -14.3115zM258.576 445.855l203.08 -103.136l-205.488 -110.736l-203.088 110.592zM500.672 239.84
l-47.4883 24.1104l-34.2803 -18.4883l40 -20.3115l-205.48 -110.728l-203.096 110.592l42.6562 21.4404l-34.1836 18.624l-50.1602 -25.2002c-5.31152 -2.67188 -8.71973 -8.08008 -8.81543 -14.0322s3.12793 -11.4717 8.34375 -14.3115l237.544 -129.36
c2.3916 -1.2959 5.01562 -1.95215 7.65527 -1.95215c2.6084 0 5.2168 0.639648 7.59277 1.91992l240.048 129.36c5.23242 2.81641 8.48828 8.3125 8.4082 14.2646c-0.0722656 5.96777 -3.44824 11.376 -8.74414 14.0723zM500.672 127.838l-44.9844 22.1113
l-34.2803 -18.4883l37.5039 -18.3115l-205.488 -110.728l-203.096 110.592l39.6562 17.9355l-34.1836 18.624l-47.1602 -21.7041c-5.31152 -2.67188 -8.71973 -8.08008 -8.81543 -14.0322s3.12793 -11.4717 8.34375 -14.3115l237.544 -129.36
c2.3916 -1.2959 5.01562 -1.95215 7.65527 -1.95215c2.6084 0 5.2168 0.639648 7.59277 1.91992l240.048 129.36c5.23242 2.81641 8.48828 8.3125 8.4082 14.2646c-0.0722656 5.97559 -3.44824 11.3838 -8.74414 14.0801z" />
    <glyph glyph-name="uniE035" unicode="&#xe035;" 
d="M511.368 8.67969l-41.7051 251.887c-3.71973 32.6562 -33.4873 59.2158 -66.3594 59.2158h-35.3281v42.6396c0 65.0801 -46.4238 118.016 -111.488 118.016c-65.0479 0 -112.472 -52.9355 -112.472 -118.016v-42.6396h-38.3359
c-32.8721 0 -62.6396 -26.5596 -66.2637 -58.5273l-38.6396 -252.08c-1.48828 -13.2803 1.11133 -23.752 7.70312 -31.1436c6.21582 -6.95215 15.2637 -10.4883 26.8721 -10.4883h436.784c16.4561 0 25.8877 6.6084 30.9199 12.1602
c4.6084 5.10449 9.82422 14.0723 8.3125 28.9766zM176.023 362.431c0 47.4238 33.0635 86.0156 80.4717 86.0156s79.4883 -38.5918 79.4883 -86.0156v-42.6396h-159.96v42.6396zM473.582 -0.225586l-436.249 -0.223633c-2.75195 0 -5.50391 1.47168 -4.85547 5.34375
l38.624 252.048c1.91992 16.7197 17.752 30.8398 34.5762 30.8398h38.3438v-36.4639c-9.53613 -5.53613 -16.0244 -15.7441 -16.0244 -27.5684c0 -17.6719 14.3281 -32 32 -32s32 14.3281 32 32c0 11.8076 -6.46387 22 -15.9756 27.5439v36.4961h159.952v-36.4961
c-9.50391 -5.54395 -15.9756 -15.7441 -15.9756 -27.5439c0 -17.6719 14.3281 -32 32 -32s32 14.3281 32 32c0 11.8242 -6.48828 22.0322 -16.0244 27.5762v36.4639h35.3281c16.832 0 32.6562 -14.1279 34.7041 -31.7197l41.6719 -251.64
c0.200195 -2.04785 -1.4082 -4.65625 -6.0957 -4.65625z" />
    <glyph glyph-name="uniE036" unicode="&#xe036;" 
d="M464.752 272.792c0 84.3916 -44.4902 160.937 -118.986 204.784c-7.62402 4.50391 -17.4404 1.93555 -21.9043 -5.68848c-4.47168 -7.6084 -1.93555 -17.4248 5.68848 -21.9053c64.624 -38.0156 103.2 -104.264 103.2 -177.184
c0 -121.184 -87.9678 -209.144 -209.16 -209.144c-27.0957 0 -53.3916 5.08008 -78.1592 15.0801c-8.18359 3.32812 -17.5273 -0.639648 -20.8311 -8.83203c-3.31152 -8.2002 0.640625 -17.5283 8.83301 -20.832c28.6084 -11.5596 58.9365 -17.4238 90.1602 -17.4238
c0.0957031 0 0.191406 0.0078125 0.287109 0.0078125v-31.5039h-46.4639c-9.23242 0 -16.7207 -7.15234 -16.7207 -15.9766s7.48828 -15.9678 16.7207 -15.9678h126.424c9.23242 0 16.7207 7.15234 16.7207 15.9688c0 8.83203 -7.48828 15.9756 -16.7207 15.9756h-48.1924
v33.4004c122.904 14.2803 209.104 110.456 209.104 239.24zM399.686 271.353c0 97.3281 -78.8721 176.704 -176.2 176.704c-97.3438 0 -176.231 -79.376 -176.231 -176.704s78.8877 -175.72 176.231 -175.72c97.3281 0 176.2 78.3916 176.2 175.72zM79.2451 271.353
c0 79.5117 64.7051 144.704 144.233 144.704c79.5117 0 144.199 -65.1836 144.199 -144.703c0 -79.5205 -64.6885 -143.721 -144.2 -143.721c-79.5283 0 -144.232 64.2002 -144.232 143.72z" />
    <glyph glyph-name="uniE037" unicode="&#xe037;" 
d="M512.512 224c0 136.008 -106.832 247.551 -241.16 255.511c-2.76758 0.303711 -5.54395 0.503906 -8.36035 0.503906c-0.832031 0 -1.66406 -0.0878906 -2.49609 -0.112305c-1.49609 0.0244141 -2.98438 0.112305 -4.49609 0.112305
c-141.44 0 -256.513 -114.848 -256.513 -256.016s115.072 -256.016 256.513 -256.016c1.51172 0 3 0.0878906 4.50391 0.120117c0.832031 -0.0322266 1.66406 -0.120117 2.49609 -0.120117c2.81641 0 5.59277 0.200195 8.36035 0.503906
c134.32 7.95996 241.152 119.488 241.152 255.513zM464.783 141.583c-8.81641 2.55957 -30.959 8.11914 -70.0312 12.6953c3.23242 22.0957 5 45.4473 5 69.7197c0 19.1279 -1.10449 37.6719 -3.14453 55.5039c49.5039 5.91211 71.1914 13.3604 72.6475 13.8721
l-5.95996 16.792c11.1201 -26.5439 17.2803 -55.6475 17.2803 -86.167c0 -29.0957 -5.63965 -56.8799 -15.792 -82.416zM142.744 223.999c0 17.9043 1.18262 35.3838 3.35059 52.2002c25.9443 -2.04004 56.9688 -3.54395 93.4326 -3.89551v-111.032
c-35.4961 -0.34375 -65.832 -1.78418 -91.3438 -3.73633c-3.51953 21.0957 -5.43945 43.4395 -5.43945 66.4639zM271.471 445.886c39.2324 -11.3682 72.8232 -65.8477 87.8711 -138.056c-24.1836 -1.92773 -53.3115 -3.33594 -87.8711 -3.66406v141.72zM239.525 445.494
l-0.000976562 -141.312c-34.1836 0.34375 -63.4395 1.73535 -88.0312 3.61523c15.3516 71.3037 49.2158 125.376 88.0322 137.696zM239.524 129.383v-126.872c-36.2002 11.4883 -68.0957 59.2881 -84.6797 123.512c23.8799 1.75195 52.0479 3.03223 84.6797 3.36035z
M271.469 2.11035l0.000976562 127.28c32.9756 -0.311523 61.0312 -1.63965 84.6074 -3.46387c-16.3037 -65.0645 -48 -113.208 -84.6084 -123.816zM271.47 161.271l0.000976562 111.017c36.6562 0.34375 67.4961 1.8877 93.0957 4
c2.10449 -16.8477 3.24805 -34.3516 3.24805 -52.2959c0 -23.0645 -1.85645 -45.4326 -5.26465 -66.5605c-25.208 2.04004 -55.4004 3.50391 -91.0801 3.83984zM457.398 323.031c-4.83203 -1.50391 -25.0312 -7.23828 -65.5107 -12.0146
c-9.02441 47.9756 -25.3369 88.9834 -46.5605 118.583c48.7676 -21.1924 88.5674 -59.1523 112.071 -106.568zM179.407 434.705c-26.1035 -29.9756 -47.416 -73.0801 -59.0479 -124.056c-36.2402 3.92773 -57.96 8.54395 -66.6562 10.6396
c25.3604 52.3203 70.5205 93.376 125.704 113.416zM41.8145 291.408c6.16016 -1.67188 29.4561 -7.47363 72.7764 -12.2656c-2.48047 -17.7197 -3.84082 -36.1514 -3.84082 -55.1514c0 -24.1357 2.18359 -47.3594 6.11914 -69.3438
c-37.2002 -4.01562 -60.0801 -8.82324 -70.3438 -11.3037c-9.71973 25.0479 -15.1035 52.2236 -15.1035 80.6553c0 23.4805 3.65625 46.1289 10.3926 67.4092zM60.542 113.822c11.6318 2.47168 32.4561 6.23242 63.2959 9.46484
c12.1436 -44.8564 31.8955 -82.8086 55.5674 -109.984c-50.5596 18.3604 -92.6475 54.376 -118.863 100.52zM345.326 18.4072c19.1123 26.6318 34.2393 62.5127 43.6475 104.4c31.7041 -3.63965 51.6084 -7.89551 61.6484 -10.4316
c-24.0078 -41.5361 -60.9277 -74.6963 -105.296 -93.9688z" />
    <glyph glyph-name="uniE038" unicode="&#xe038;" 
d="M112 424h-96c-8.83203 0 -16 -7.16797 -16 -16v-96c-0 -8.83203 7.16797 -16 16 -16s16 7.16797 16 16v80h80c8.83203 0 16 7.16797 16 16s-7.16797 16 -16 16zM496 152c-8.83203 0 -16 -7.16797 -16 -16v-80h-80c-8.83203 0 -16 -7.16797 -16 -16s7.16797 -16 16 -16h96
c8.83203 0 16 7.16797 16 16v96c0 8.83203 -7.16797 16 -16 16zM112 56h-80v80c0 8.83203 -7.16797 16 -16 16s-16 -7.16797 -16 -16v-96c-0 -8.83203 7.16797 -16 16 -16h96c8.83203 0 16 7.16797 16 16s-7.16797 16 -16 16zM496 424h-96c-8.83203 0 -16 -7.16797 -16 -16
s7.16797 -16 16 -16h80v-80c0 -8.83203 7.16797 -16 16 -16s16 7.16797 16 16v96c0 8.83203 -7.16797 16 -16 16z" />
    <glyph glyph-name="uniE039" unicode="&#xe039;" 
d="M480.08 376h-240l-48 48h-160c-17.6719 0 -32 -14.3281 -32 -32v-80h-0.152344v-32h0.152344v-224c0 -17.6719 14.3281 -32 32 -32h448c17.6719 0 32 14.3281 32 32v288c0 17.6719 -14.3281 32 -32 32zM32.0723 392h145.377l39.3115 -38.624l10.0557 -9.37598h253.264
v-32h-448v80h-0.0078125zM32.0732 56v224h448v-224h-448z" />
    <glyph glyph-name="uniE03A" unicode="&#xe03a;" 
d="M400 343.856h32c8.83203 0 16 7.16797 16 16v16c0 8.83203 -7.16797 16 -16 16h-32c-8.83203 0 -16 -7.16797 -16 -16v-16c0 -8.83203 7.16797 -16 16 -16zM400 247.856h32c8.83203 0 16 7.16797 16 16v16c0 8.83203 -7.16797 16 -16 16h-32
c-8.83203 0 -16 -7.16797 -16 -16v-16c0 -8.83203 7.16797 -16 16 -16zM400 151.856h32c8.83203 0 16 7.16797 16 16v16c0 8.83203 -7.16797 16 -16 16h-32c-8.83203 0 -16 -7.16797 -16 -16v-16c0 -8.83203 7.16797 -16 16 -16zM400 55.8564h32c8.83203 0 16 7.16797 16 16
v16c0 8.83203 -7.16797 16 -16 16h-32c-8.83203 0 -16 -7.16797 -16 -16v-16c0 -8.83203 7.16797 -16 16 -16zM80 343.856h32c8.83203 0 16 7.16797 16 16v16c0 8.83203 -7.16797 16 -16 16h-32c-8.83203 0 -16 -7.16797 -16 -16v-16c0 -8.83203 7.16797 -16 16 -16z
M80 247.856h32c8.83203 0 16 7.16797 16 16v16c0 8.83203 -7.16797 16 -16 16h-32c-8.83203 0 -16 -7.16797 -16 -16v-16c0 -8.83203 7.16797 -16 16 -16zM80 151.856h32c8.83203 0 16 7.16797 16 16v16c0 8.83203 -7.16797 16 -16 16h-32c-8.83203 0 -16 -7.16797 -16 -16
v-16c0 -8.83203 7.16797 -16 16 -16zM80 55.8564h32c8.83203 0 16 7.16797 16 16v16c0 8.83203 -7.16797 16 -16 16h-32c-8.83203 0 -16 -7.16797 -16 -16v-16c0 -8.83203 7.16797 -16 16 -16zM480 472.049h-448c-17.5918 0 -32 -14.4082 -32 -32v-432.096
c0 -17.5918 14.4082 -32 32 -32h448c17.5918 0 32 14.4082 32 32v432.096c0 17.5918 -14.4082 32 -32 32zM480 7.95312h-448v432.096h448v-432.096z" />
    <glyph glyph-name="uniE03B" unicode="&#xe03b;" 
d="M50.9355 314.872c-9.06445 0 -16.3848 -7.32812 -16.3848 -16.3838c0 -9.04785 7.32031 -16.3838 16.3848 -16.3838c151.504 0 262.672 -112.184 262.672 -263.68c0 -9.04785 7.32812 -16.376 16.3838 -16.376s16.3838 7.32812 16.3838 16.376
c0 170.184 -125.264 296.447 -295.439 296.447zM51.0791 478.688c-9.05566 0 -16.3838 -7.32812 -16.3838 -16.3838s7.32812 -16.3838 16.3838 -16.3838c235.088 0 426.336 -191.248 426.336 -426.328c0 -9.04785 7.32812 -16.376 16.3838 -16.376
s16.3838 7.32812 16.3838 16.376c-0.0078125 253.144 -205.96 459.096 -459.104 459.096zM92.0068 150.2c-49.7363 0 -90.1826 -40.5596 -90.1826 -90.4395c0 -49.8564 40.4561 -90.4561 90.1836 -90.4561s90.1992 40.5918 90.1992 90.4561
c0 49.8799 -40.4639 90.4395 -90.2002 90.4395zM92.0088 0.984375c-32.3037 0 -58.585 26.376 -58.585 58.7842s26.2803 58.7686 58.584 58.7686c32.3125 0 58.6084 -26.3604 58.6084 -58.7686s-26.2959 -58.7842 -58.6074 -58.7842z" />
    <glyph glyph-name="uniE03C" unicode="&#xe03c;" 
d="M511.92 193.728c0.0478516 10.5283 -1.60547 50.2461 -2.86914 61.6064c-14.5596 130.376 -120.376 225 -251.592 225c-136.672 0 -247.408 -105.312 -254.92 -244.951c-0.160156 -3.04785 -1.28027 -24.6719 -1.36035 -37.5439l-0.0400391 -7.16016
c-0.65625 -2.95996 -1.05664 -6.01562 -1.05664 -9.16797v-107.328c0 -23.4404 19.0645 -42.5049 42.5049 -42.5049h43.1436c23.4404 0 42.5127 19.0645 42.5127 42.5049v107.32c0 23.4404 -19.0801 42.5049 -42.5117 42.5049h-43.1523
c-2.94434 0 -5.81641 -0.303711 -8.59277 -0.87207c0.240234 5.19238 0.456055 9.28809 0.511719 10.5283c6.58398 122.392 103.568 214.672 222.96 214.672c114.64 0 207.063 -82.6719 219.783 -196.56c0.536133 -4.75195 1.22363 -16.832 1.77539 -28.96
c-3.0957 0.719727 -6.28809 1.19141 -9.59961 1.19141h-42.6396c-23.4404 0 -42.5049 -19.0645 -42.5049 -42.5049v-106.832c0 -16.1836 9.2002 -30.1279 22.5439 -37.2959l-102.72 -40.3281v2.6084c0 8.83203 -7.16797 16 -16 16h-48c-8.83203 0 -16 -7.16797 -16 -16v-16
c0 -8.83203 7.16797 -16 16 -16h48c0.135742 0 0.255859 0.0400391 0.391602 0.0400391l28.6797 0.112305l164.776 64.6885c2.16016 0.896484 3.99219 2.23242 5.49609 3.83203c14.4238 6.80762 24.4961 21.3672 24.4961 38.3428v106.832
c0 2.6084 -0.320312 5.14453 -0.776367 7.61621c0.44043 1.47168 0.751953 3 0.759766 4.6084zM42.5791 192.006h43.1436c5.7998 0 10.5117 -4.7041 10.5117 -10.5039v-107.328c0 -5.7998 -4.71973 -10.5039 -10.5117 -10.5039h-43.1436
c-5.7998 0 -10.5039 4.7041 -10.5039 10.5039v107.328c0.0078125 5.7998 4.71191 10.5039 10.5039 10.5039zM416.267 181.502c0 5.7998 4.7041 10.5039 10.5039 10.5039h42.6396c5.7998 0 10.5117 -4.7041 10.5117 -10.5039v-106.832
c0 -5.7998 -4.71973 -10.5039 -10.5117 -10.5039h-42.6396c-5.7998 0 -10.5039 4.7041 -10.5039 10.5039v106.832z" />
    <glyph glyph-name="uniE03D" unicode="&#xe03d;" 
d="M511.92 177.72c0.0478516 10.5283 -1.60547 50.2441 -2.86914 61.6045c-14.5596 130.376 -120.376 225 -251.592 225c-136.672 0 -247.408 -105.312 -254.92 -244.951c-0.160156 -3.04785 -1.28027 -24.6719 -1.36035 -37.5439l-0.0400391 -7.16016
c-0.65625 -2.95996 -1.05664 -6.01562 -1.05664 -9.16797v-139.328c0 -23.4404 19.0645 -42.5049 42.5049 -42.5049h43.1436c23.4404 0 42.5127 19.0645 42.5127 42.5049v139.32c0 23.4404 -19.0801 42.5049 -42.5117 42.5049h-43.1602
c-2.94434 0 -5.81641 -0.303711 -8.59277 -0.87207c0.240234 5.19238 0.456055 9.29688 0.511719 10.5293c6.5918 122.392 103.567 214.672 222.968 214.672c114.64 0 207.063 -82.6719 219.783 -196.56c0.543945 -4.75195 1.23145 -16.832 1.7832 -28.96
c-3.12012 0.719727 -6.30371 1.19141 -9.61621 1.19141h-42.6396c-23.4404 0 -42.5049 -19.0645 -42.5049 -42.5049v-138.832c0 -23.4482 19.0645 -42.5039 42.5049 -42.5039h42.6396c23.4404 0 42.5127 19.0645 42.5127 42.5049v138.832
c0 2.6084 -0.320312 5.14453 -0.78418 7.6084c0.463867 1.47168 0.767578 3.00781 0.783203 4.61621zM42.5713 175.996h43.1436c5.7998 0 10.5117 -4.7041 10.5117 -10.5039v-139.328c0 -5.80762 -4.71973 -10.5039 -10.5117 -10.5039h-43.1436
c-5.7998 0 -10.5039 4.7041 -10.5039 10.5039v139.328c0.015625 5.7998 4.71973 10.5039 10.5039 10.5039zM479.923 26.668c0 -5.7998 -4.71973 -10.5039 -10.5117 -10.5039h-42.6396c-5.7998 0 -10.5039 4.7041 -10.5039 10.5039v138.824
c0 5.7998 4.7041 10.5039 10.5039 10.5039h42.6396c5.7998 0 10.5117 -4.7041 10.5117 -10.5039v-138.824z" />
    <glyph glyph-name="uniE03E" unicode="&#xe03e;" 
d="M255.2 -31.3516c-96.6562 0 -175.296 77.5596 -175.296 172.888c0 111.344 155.816 322.424 162.456 331.359c3 4.03223 7.7041 6.42383 12.7363 6.45605c5.5918 0.0478516 9.78418 -2.2959 12.832 -6.28027c6.7041 -8.76758 164.168 -216.111 164.168 -331.527
c0 -95.3359 -79.3604 -172.896 -176.896 -172.896zM255.376 436.152c-37.2002 -52.832 -143.472 -211.031 -143.472 -294.607c0 -77.6885 64.2803 -140.889 143.296 -140.889c79.8877 0 144.888 63.2002 144.888 140.889
c0.0078125 86.6797 -107.072 242.512 -144.712 294.607z" />
    <glyph glyph-name="uniE03F" unicode="&#xe03f;" 
d="M511.488 225.008l-58.752 203.543c-1.91992 6.93555 -8.23145 11.7354 -15.4238 11.7354h-367.672c-7.24805 0 -13.5918 -4.87207 -15.4717 -11.8877l-53.6963 -193.176c-0.992188 -3.75195 -0.503906 -7.50391 1 -10.7676
c-0.864258 -2.89551 -1.47266 -5.91113 -1.47266 -9.08691v-175.656c0 -17.6719 14.3281 -32 32 -32h448c17.6719 0 32 14.3281 32 32v175.656c0 0.856445 -0.183594 1.66406 -0.248047 2.50391c0.416016 2.2959 0.408203 4.71973 -0.263672 7.13574zM81.9521 408.287
l343.185 -0.000976562l46.5596 -160.92h-149.168c-0.719727 -38.4082 -27.9521 -64.8398 -66.5283 -64.8398s-65.3125 26.4404 -66.0322 64.8408h-152.888zM480.001 39.71h-447.999v175.656h131.56c13.9678 -40.2158 47.8877 -64.8398 92.4395 -64.8398
s78.9678 24.624 92.9355 64.8398h131.064v-175.656z" />
    <glyph glyph-name="uniE040" unicode="&#xe040;" 
d="M384 480h-176c-17.6719 0 -32 -14.3281 -32 -32h176v-128h128v-256h-112v-32h112c17.6719 0 32 14.3281 32 32v287.992zM384 352v82.752l82.7363 -82.752h-82.7363zM32 416c-17.6719 0 -32 -14.3281 -32 -32v-384c0 -17.6719 14.3281 -32 32 -32h272
c17.6719 0 32 14.3281 32 32v287.992l-128 128.008h-176zM304 0h-272v384h144v-128h128v-256zM208 288v82.752l82.7363 -82.752h-82.7363z" />
    <glyph glyph-name="uniE041" unicode="&#xe041;" 
d="M508.528 386.968l-49.8467 55.6729c-3.03223 3.42383 -7.39258 5.37598 -11.9688 5.37598h-175.128v16.9844c0 8.28027 -7.16797 15 -16 15s-16 -6.71973 -16 -15v-16.9844h-127.904c-8.83984 0 -16 -7.16016 -16 -16v-111.832c0 -8.83984 7.16016 -16 16 -16h127.904
v-32.0479h-174.296c-4.57617 0 -8.93652 -1.95215 -11.9688 -5.37598l-49.8398 -56.6562c-5.37598 -6.06445 -5.37598 -15.1846 0 -21.249l49.8398 -56.1436c3.05566 -3.42383 7.3916 -4.87207 11.9678 -4.87207h174.296v-144.84c0 -8.28027 7.16797 -15 16 -15
s16 6.71973 16 15v144.84h128.232c8.83984 0 16 7.16016 16 16v112.304c0 8.83984 -7.16016 16 -16 16h-128.232v32.0479h175.128c4.57617 0 8.93652 1.95215 11.9688 5.37598l49.8477 56.1602c5.36816 6.05566 5.36816 15.1758 0 21.2402zM383.825 159.841h-311.344
l-35.6396 39.6396l35.6396 40.6562h311.344v-80.2959zM439.521 336.185h-311.84v79.832h311.84l35.6396 -39.6719z" />
    <glyph glyph-name="uniE042" unicode="&#xe042;" 
d="M483.456 330.92l-89.5605 95.999c-3.04004 3.24023 -7.27246 5.08008 -11.7129 5.08008h-133.56l-0.503906 33c0 8.28027 -7.16797 15 -16 15s-15 -6.71973 -15 -15l-0.488281 -33h-176.384c-8.83984 0 -16 -7.16016 -16 -16v-192c0 -8.83984 7.16016 -16 16 -16h176.168
v-225c0 -8.28027 7.16797 -15 16 -15s16 6.71973 16 15v225h133.768c4.44043 0 8.67285 1.83984 11.7051 5.08008l89.5596 96c5.73633 6.15234 5.73633 15.6885 0.00878906 21.8408zM375.231 239.999h-318.984v160h318.984l74.6396 -80z" />
    <glyph glyph-name="uniE043" unicode="&#xe043;" 
d="M509.36 332.264l-69.9385 133.721c-4.08008 7.7998 -14.6318 14.1758 -23.4238 14.1758h-160.968c-0.175781 0.0078125 -0.351562 0.0556641 -0.527344 0.0634766c-0.143555 0 -0.279297 -0.0556641 -0.422852 -0.0634766h-158.08
c-8.7998 0 -19.376 -6.36035 -23.5117 -14.1279l-69.752 -131.144c-4.14355 -7.76758 -3.31152 -19.9678 1.81641 -27.1279l240.008 -334.576c2.57617 -3.5918 6 -5.4082 9.41602 -5.4082c3.3916 0 6.79199 1.76758 9.38379 5.2959l243.952 332.128
c5.19238 7.0957 6.12793 19.2715 2.04785 27.0635zM471.182 336.185h-85.7285l34.3281 98.3037zM287.669 448.16h102.984l-31.9443 -91.4639zM334.117 336.185h-148.824l70.3359 101.048zM156.941 351.457l-32.0879 96.7041h99.4082zM340.373 304.186l-86.0166 -246.272
l-81.7275 246.272h167.744zM218.461 64.457l-171.968 239.728h92.416zM374.27 304.185h92.584l-176.488 -240.28zM94.2373 438.793l34.0479 -102.608h-88.624z" />
    <glyph glyph-name="uniE044" unicode="&#xe044;" 
d="M416.28 272.104c-4.16797 0 -17.5996 0.0800781 -32.1514 0.183594l0.0556641 31.9844c0 17.6719 -14.3281 32 -32 32l-320.248 0.0800781c-17.6719 0 -32 -14.3281 -32 -32v-240.472c0 -53.0156 42.9844 -96 96 -96h192.328c53.0156 0 95.5039 42.9844 95.5039 96
l0.0322266 16.4238c14.5117 -0.112305 29.3037 -0.200195 32.4873 -0.200195c52.8877 0 95.7842 42.5195 95.7842 95.5352c-0.0078125 53.0244 -42.9043 96.4648 -95.792 96.4648zM351.769 63.8799c0 -35.2959 -28.2002 -64 -63.5039 -64h-192.328
c-35.2959 0 -64 28.7041 -64 64l-0.0478516 240.472h0.0478516l320.248 -0.0957031zM416.28 111.64c-3.17578 0 -17.9424 0.0986328 -32.4307 0.202148l0.223633 128.408c14.5596 -0.104492 28.0234 -0.18457 32.1992 -0.18457c36.5596 0 64.3115 -27.2725 64.3115 -63.9209
s-27.7441 -64.5049 -64.3037 -64.5049zM287.938 368.123c8.83203 0 16 7.16797 16 16v80c0 8.83203 -7.16797 16 -16 16s-16 -7.16797 -16 -16v-80c0 -8.83984 7.16797 -16 16 -16zM95.9375 368.123c8.83203 0 16 7.16797 16 16v80c0 8.83203 -7.16797 16 -16 16
s-16 -7.16797 -16 -16v-80c0 -8.83984 7.16797 -16 16 -16zM191.938 368.123c8.83203 0 16 7.16797 16 16v80c0 8.83203 -7.16797 16 -16 16s-16 -7.16797 -16 -16v-80c0 -8.83984 7.16797 -16 16 -16z" />
    <glyph glyph-name="uniE045" unicode="&#xe045;" 
d="M366.592 339.864l-156.578 -67.3184c-2.83203 -1.44043 -5.12793 -3.73633 -6.57617 -6.57617l-71.7275 -144.608c-2.93555 -5.76758 -1.87109 -12.7676 2.65723 -17.3916c2.9043 -2.95215 6.81641 -4.51172 10.7686 -4.51172
c2.21582 0 4.47168 0.488281 6.55957 1.50391l152.864 63.4883c2.7998 1.34375 5.1123 3.52734 6.6084 6.24707l75.4404 148.448c3.21582 5.7998 2.26367 13.0156 -2.32812 17.7832c-4.6084 4.76758 -11.792 5.93555 -17.6885 2.93555zM178.926 147.594l43.5049 88.8398
l43.9355 -54.9922zM292.351 200.193l-44.3994 55.5762l88.3916 34.8799zM255.999 480.002c-141.384 0 -256 -114.616 -256 -256c0 -141.392 114.616 -256 256 -256c141.392 0 256 114.608 256 256c0 141.384 -114.608 256 -256 256zM255.999 -0.501953
c-123.512 0 -224 100.992 -224 224.504s100.488 224 224 224s224 -100.488 224 -224s-100.488 -224.504 -224 -224.504z" />
    <glyph glyph-name="uniE046" unicode="&#xe046;" 
d="M500.176 94.1924c-7.83203 5.50391 -93.5264 62.4863 -104.03 68.9023c-4.57617 2.7998 -10.1602 4.16797 -16.2324 4.16797c-7.83203 0 -16.5039 -2.28027 -24.9678 -6.73633c-8.24805 -4.34375 -33.2324 -18.5596 -45.4561 -25.5439
c-10.7676 7.55957 -36.0635 26.9355 -75.9199 66.832c-39.6084 39.5918 -59.1602 65.0957 -66.7686 75.9199c6.96777 12.2158 21.168 37.2002 25.4883 45.4238c8.18359 15.5039 9.11133 30.9844 2.47168 41.4248c-6.23242 9.83984 -62.9844 95.9043 -68.8408 104
c-5.51172 7.63965 -15.4072 11.7676 -26.1436 11.7676c-8.47168 0 -17.4561 -2.55957 -25.248 -7.9834c-0.751953 -0.536133 -76.0479 -55.1279 -75.0479 -86.1758c2.77637 -87.2158 87.5283 -189.712 158.137 -260.344s173.112 -155.408 260.672 -158.2h0.719727
c30.6562 0 84.5439 74.3438 85.0635 75.0801c14.1357 20.2002 8.9834 42.4404 -3.89648 51.4648zM478.074 61.3662c-20.2959 -28.1123 -49.1123 -57.4727 -60.3926 -61.6729c-60.0156 2.81641 -144.231 55.5605 -237.439 148.784
c-93.2002 93.2324 -145.937 177.353 -148.721 237.169c4.04785 11.3125 33.4082 40.3125 61.2646 60.4561c2.06445 1.42383 4.6084 2.24805 6.98438 2.24805c0.52832 0 0.96875 -0.0478516 1.3125 -0.112305c9 -13.0801 57.3115 -86.2158 66.0791 -99.8877
c0.0322266 -1.44043 -0.456055 -5.09668 -3.2002 -10.3125c-2.91992 -5.55957 -12.0156 -21.7676 -24.9512 -44.4395l-10.0645 -17.6396l11.6719 -16.624c8.7041 -12.3604 29.4082 -39.2324 70.3125 -80.1445c41.0801 -41.0957 67.8564 -61.7354 80.1689 -70.3916
l16.624 -11.6719l17.6396 10.0801c17.0957 9.76758 37.752 21.4717 44.4717 25c5.3916 2.83984 9.0791 3.06348 10.0791 3.06348c0.160156 0 0.295898 0 0.408203 -0.015625c12.248 -7.68848 86.9678 -57.2969 100.16 -66.3447
c0.21582 -1.28027 0.015625 -4.06445 -2.4082 -7.54395zM341.954 288.862l137.623 136.781l-0.44043 -77.5283c-0.143555 -6.47168 4.98438 -12.0957 11.4561 -11.9434l8.20801 0.0078125c6.48047 0.160156 11.8242 4 11.96 10.4639l0.328125 115.504
c0 0.112305 -0.431641 0.192383 -0.431641 0.304688l0.631836 5.85645c0.0644531 3.24805 -0.6875 6.14453 -2.7998 8.2168c-2.06445 2.08789 -4.96875 3.35938 -8.19238 3.27148l-5.84766 -0.135742c-0.112305 0 -0.200195 -0.0478516 -0.328125 -0.0634766
l-114.736 0.511719c-6.46387 -0.143555 -11.8076 -5.4873 -11.96 -11.959l-0.015625 -8.20801c0.984375 -7.61621 6.96875 -12.0801 13.4404 -11.9365l75.624 -0.200195l-137.144 -136.312c-6.24805 -6.24805 -6.24805 -16.3838 0 -22.6318
c6.24805 -6.24023 16.376 -6.24023 22.624 0z" />
    <glyph glyph-name="uniE047" unicode="&#xe047;" 
d="M500.176 94.1924c-7.83203 5.50391 -93.5264 62.4863 -104.03 68.9023c-4.57617 2.7998 -10.1602 4.16797 -16.2324 4.16797c-7.83203 0 -16.5039 -2.28027 -24.9678 -6.73633c-8.24805 -4.34375 -33.2324 -18.5596 -45.4561 -25.5439
c-10.7676 7.55957 -36.0635 26.9355 -75.9199 66.832c-39.6084 39.5918 -59.1602 65.0957 -66.7686 75.9199c6.96777 12.2158 21.168 37.2002 25.4883 45.4238c8.18359 15.5039 9.11133 30.9844 2.47168 41.4248c-6.23242 9.83984 -62.9844 95.9043 -68.8408 104
c-5.51172 7.63965 -15.4072 11.7676 -26.1436 11.7676c-8.47168 0 -17.4561 -2.55957 -25.248 -7.9834c-0.751953 -0.536133 -76.0479 -55.1279 -75.0479 -86.1758c2.77637 -87.2158 87.5283 -189.712 158.137 -260.344s173.112 -155.408 260.672 -158.2h0.719727
c30.6562 0 84.5439 74.3438 85.0635 75.0801c14.1357 20.2002 8.9834 42.4404 -3.89648 51.4648zM478.074 61.3662c-20.2959 -28.1123 -49.1123 -57.4727 -60.3926 -61.6729c-60.0156 2.81641 -144.231 55.5605 -237.439 148.784
c-93.2002 93.2324 -145.937 177.353 -148.721 237.169c4.04785 11.3125 33.4082 40.3125 61.2646 60.4561c2.06445 1.42383 4.6084 2.24805 6.98438 2.24805c0.52832 0 0.96875 -0.0478516 1.3125 -0.112305c9 -13.0801 57.3115 -86.2158 66.0791 -99.8877
c0.0322266 -1.44043 -0.456055 -5.09668 -3.2002 -10.3125c-2.91992 -5.55957 -12.0156 -21.7676 -24.9512 -44.4395l-10.0645 -17.6396l11.6719 -16.624c8.7041 -12.3604 29.4082 -39.2324 70.3125 -80.1445c41.0801 -41.0957 67.8564 -61.7354 80.1689 -70.3916
l16.624 -11.6719l17.6396 10.0801c17.0957 9.76758 37.752 21.4717 44.4717 25c5.3916 2.83984 9.0791 3.06348 10.0791 3.06348c0.160156 0 0.295898 0 0.408203 -0.015625c12.248 -7.68848 86.9678 -57.2969 100.16 -66.3447
c0.21582 -1.28027 0.015625 -4.06445 -2.4082 -7.54395zM321.922 291.742c2.06445 -2.08789 4.96777 -3.3584 8.19141 -3.27051l5.85645 0.135742c0.112305 0 0.192383 0.0478516 0.320312 0.0556641l114.752 -0.503906c6.45605 0.152344 11.8076 5.49609 11.96 11.9678
l0.0078125 8.20801c-0.975586 7.61621 -6.96777 12.0801 -13.4316 11.9365l-75.752 0.200195l130.976 130.8c6.24805 6.24805 6.24805 16.3838 0 22.6318c-6.24805 6.24023 -16.376 6.24023 -22.624 0l-131.336 -131.16l0.44043 77.416
c0.143555 6.46387 -4.98438 12.0957 -11.4482 11.9434l-8.20801 -0.0078125c-6.48047 -0.160156 -11.832 -4.00781 -11.9678 -10.4717l-0.328125 -115.504c0 -0.112305 0.44043 -0.192383 0.44043 -0.304688l-0.639648 -5.85645
c-0.0644531 -3.24805 0.695312 -6.13574 2.79102 -8.21582z" />
    <glyph glyph-name="uniE048" unicode="&#xe048;" 
d="M480.848 380.224c0 -0.52832 -0.0478516 -0.967773 -0.112305 -1.31152c-13.0801 -9 -86.2158 -57.3125 -99.8877 -66.0801c-1.44043 -0.0322266 -5.09668 0.456055 -10.3125 3.2002c-5.55957 2.91992 -21.7676 12.0156 -44.4395 24.9512l-17.6396 10.0645
l-16.624 -11.6719c-12.3604 -8.7041 -39.2324 -29.4082 -80.1445 -70.3125c-41.0879 -41.0801 -61.7275 -67.8564 -70.3838 -80.168l-11.6719 -16.624l10.0801 -17.6396c9.76758 -17.0957 21.4717 -37.752 25 -44.4717c2.83984 -5.3916 3.06348 -9.08008 3.06348 -10.0801
c0 -0.160156 0 -0.295898 -0.015625 -0.408203c-7.67969 -12.248 -57.2959 -86.9678 -66.3359 -100.16c-1.28027 -0.21582 -4.06445 -0.015625 -7.54492 2.4082c-28.1279 20.3037 -57.4795 49.1201 -61.6875 60.4004c2.81641 60.0156 55.5605 144.231 148.784 237.439
c93.2324 93.2002 177.36 145.937 237.177 148.721c11.3115 -4.04785 40.3115 -33.4082 60.4551 -61.2646c1.41602 -2.06445 2.24023 -4.61621 2.24023 -6.99219zM511.848 380.225c0 8.47168 -2.56055 17.4541 -7.98438 25.2461
c-0.52832 0.751953 -54.1279 76.0479 -85.168 75.0479c-87.2158 -2.77637 -189.72 -87.5283 -260.352 -158.137c-70.6162 -70.6084 -155.4 -173.112 -158.192 -260.672v-0.719727c0 -30.6562 74.3359 -84.5439 75.0723 -85.0635
c20.2002 -14.1436 42.4404 -8.9834 51.4727 3.88867c5.50391 7.83203 62.4883 93.5283 68.9043 104.032c2.7998 4.57617 4.16797 10.1602 4.16797 16.2324c0 7.83203 -2.28809 16.5039 -6.73633 24.9678c-4.34375 8.24805 -18.5596 33.2324 -25.5439 45.4561
c7.55957 10.7676 26.9355 36.0635 66.8311 75.9199c39.5918 39.6084 65.0957 59.1602 75.9199 66.7686c12.2158 -6.96777 37.2002 -21.168 45.4238 -25.4883c15.5039 -8.18359 30.9844 -9.11133 41.4248 -2.47168c9.83984 6.23242 94.9043 62.9844 103 68.8408
c7.63965 5.52832 11.7598 15.4238 11.7598 26.1514v0z" />
    <glyph glyph-name="uniE049" unicode="&#xe049;" 
d="M480 480.048h-448c-17.5918 0 -32 -14.4082 -32 -32v-448.096c0 -17.5918 14.4082 -32 32 -32h448c17.5918 0 32 14.4082 32 32v448.096c0 17.5918 -14.4082 32 -32 32zM480 -0.0478516h-448v448.096h448v-448.096zM112 303.848h32v-32c0 -8.83203 7.16797 -16 16 -16
s16 7.16797 16 16v32h32c8.83203 0 16 7.16797 16 16s-7.16797 16 -16 16h-32v32c0 8.83203 -7.16797 16 -16 16s-16 -7.16797 -16 -16v-32h-32c-8.83203 0 -16 -7.16797 -16 -16s7.16797 -16 16 -16zM216.568 184.424c-6.24805 6.24805 -16.376 6.24805 -22.624 0
l-33.9443 -33.9355l-33.9443 33.9355c-6.24805 6.24805 -16.376 6.24805 -22.6318 0c-6.24805 -6.24805 -6.24805 -16.3838 0 -22.6318l33.9355 -33.9355l-33.9355 -33.9355c-6.24805 -6.24805 -6.24805 -16.3838 0 -22.6318s16.376 -6.24805 22.6318 0l33.9443 33.9277
l33.9443 -33.9355c6.24805 -6.24805 16.376 -6.24805 22.624 0s6.24805 16.3838 0 22.6318l-33.9355 33.9355l33.9355 33.9355c6.24805 6.25586 6.24805 16.3838 0 22.6396zM304 303.848h96c8.83203 0 16 7.16797 16 16s-7.16797 16 -16 16h-96
c-8.83203 0 -16 -7.16797 -16 -16s7.16797 -16 16 -16zM304 143.848h96c8.83203 0 16 7.16797 16 16s-7.16797 16 -16 16h-96c-8.83203 0 -16 -7.16797 -16 -16s7.16797 -16 16 -16zM304 79.8477h96c8.83203 0 16 7.16797 16 16s-7.16797 16 -16 16h-96
c-8.83203 0 -16 -7.16797 -16 -16s7.16797 -16 16 -16z" />
    </font>
</defs>
</svg>
